<svg width="375" height="812" viewBox="0 0 375 812" fill="none" xmlns="http://www.w3.org/2000/svg">
<g clip-path="url(#clip0_1_2817)">
<rect width="375" height="812" fill="white"/>
<rect width="375" height="812" fill="#3554D1"/>
<circle cx="357" cy="93" r="200" stroke="url(#paint0_linear_1_2817)" stroke-opacity="0.1" stroke-width="200"/>
<circle cx="300" cy="300" r="200" transform="matrix(1 0 0 -1 -273 1053)" stroke="url(#paint1_linear_1_2817)" stroke-opacity="0.1" stroke-width="200"/>
<path d="M94.2903 419.4C92.157 419.4 90.197 419.053 88.4103 418.36C86.6236 417.667 85.0636 416.68 83.7303 415.4C82.4236 414.12 81.397 412.587 80.6503 410.8C79.9303 408.987 79.5703 406.987 79.5703 404.8C79.5703 402.613 79.9303 400.627 80.6503 398.84C81.397 397.053 82.4236 395.52 83.7303 394.24C85.037 392.933 86.5836 391.933 88.3703 391.24C90.1836 390.547 92.157 390.2 94.2903 390.2C96.4236 390.2 98.3836 390.547 100.17 391.24C101.957 391.933 103.504 392.933 104.81 394.24C106.144 395.52 107.17 397.053 107.89 398.84C108.61 400.627 108.97 402.613 108.97 404.8C108.97 406.987 108.61 408.987 107.89 410.8C107.17 412.587 106.144 414.12 104.81 415.4C103.504 416.68 101.957 417.667 100.17 418.36C98.3836 419.053 96.4236 419.4 94.2903 419.4ZM94.2903 416.28C95.277 416.28 96.1703 416.04 96.9703 415.56C97.797 415.053 98.5036 414.32 99.0903 413.36C99.677 412.373 100.117 411.173 100.41 409.76C100.73 408.32 100.89 406.667 100.89 404.8C100.89 402.933 100.73 401.293 100.41 399.88C100.117 398.44 99.677 397.24 99.0903 396.28C98.5036 395.293 97.797 394.56 96.9703 394.08C96.1703 393.573 95.277 393.32 94.2903 393.32C93.3036 393.32 92.397 393.573 91.5703 394.08C90.7436 394.56 90.037 395.293 89.4503 396.28C88.8903 397.24 88.4503 398.44 88.1303 399.88C87.8103 401.293 87.6503 402.933 87.6503 404.8C87.6503 406.667 87.8103 408.32 88.1303 409.76C88.4503 411.173 88.8903 412.373 89.4503 413.36C90.037 414.32 90.7436 415.053 91.5703 415.56C92.397 416.04 93.3036 416.28 94.2903 416.28ZM128.916 401.64C128.916 401.48 128.796 401.333 128.556 401.2C128.316 401.067 128.009 400.973 127.636 400.92C127.263 400.84 126.876 400.8 126.476 400.8H126.396V398.48H133.956V400.8H133.916C133.596 400.8 133.303 400.853 133.036 400.96C132.769 401.067 132.516 401.24 132.276 401.48C132.063 401.72 131.876 402.067 131.716 402.52L125.956 419H119.076L113.116 402.16C113.009 401.813 112.849 401.547 112.636 401.36C112.449 401.173 112.223 401.04 111.956 400.96C111.689 400.853 111.369 400.8 110.996 400.8H110.916V398.48H122.836V400.8H122.756C122.356 400.8 121.956 400.813 121.556 400.84C121.156 400.867 120.823 400.907 120.556 400.96C120.289 400.987 120.156 401.053 120.156 401.16L125.156 415.92L124.196 415.32L128.916 401.64ZM142.092 408.84C142.092 410.04 142.199 411.107 142.412 412.04C142.626 412.973 142.959 413.76 143.412 414.4C143.866 415.04 144.426 415.52 145.092 415.84C145.786 416.16 146.599 416.32 147.532 416.32C148.492 416.32 149.319 416.133 150.012 415.76C150.706 415.387 151.306 414.907 151.812 414.32C152.319 413.733 152.746 413.133 153.092 412.52L155.492 414.24C154.986 415.253 154.319 416.147 153.492 416.92C152.666 417.693 151.666 418.307 150.492 418.76C149.346 419.187 147.972 419.4 146.372 419.4C144.052 419.4 142.012 418.973 140.252 418.12C138.519 417.267 137.172 416.04 136.212 414.44C135.252 412.84 134.772 410.96 134.772 408.8C134.772 406.64 135.239 404.76 136.172 403.16C137.106 401.56 138.399 400.32 140.052 399.44C141.706 398.533 143.572 398.08 145.652 398.08C147.332 398.08 148.799 398.333 150.052 398.84C151.306 399.32 152.359 400.053 153.212 401.04C154.092 402 154.759 403.213 155.212 404.68C155.666 406.12 155.892 407.813 155.892 409.76H140.932V407.04H149.972L149.092 408.12C149.066 406.76 148.986 405.627 148.852 404.72C148.719 403.787 148.519 403.053 148.252 402.52C147.986 401.987 147.652 401.613 147.252 401.4C146.852 401.16 146.372 401.04 145.812 401.04C145.252 401.04 144.746 401.187 144.292 401.48C143.839 401.773 143.439 402.24 143.092 402.88C142.772 403.493 142.519 404.293 142.332 405.28C142.172 406.267 142.092 407.453 142.092 408.84ZM174.449 398.4V404.6C174.235 404.52 173.995 404.467 173.729 404.44C173.462 404.387 173.182 404.347 172.889 404.32C172.622 404.293 172.342 404.28 172.049 404.28C171.435 404.28 170.862 404.347 170.329 404.48C169.822 404.587 169.342 404.76 168.889 405C168.462 405.24 168.075 405.573 167.729 406C167.382 406.427 167.062 406.933 166.769 407.52L166.729 405.32C167.102 403.933 167.542 402.707 168.049 401.64C168.582 400.573 169.235 399.733 170.009 399.12C170.782 398.507 171.755 398.2 172.929 398.2C173.275 398.2 173.582 398.227 173.849 398.28C174.115 398.307 174.315 398.347 174.449 398.4ZM158.129 419V416.64H158.209C158.795 416.64 159.289 416.56 159.689 416.4C160.089 416.24 160.289 415.92 160.289 415.44V402.36C160.289 402.067 160.222 401.84 160.089 401.68C159.982 401.52 159.795 401.4 159.529 401.32C159.262 401.213 158.915 401.107 158.489 401L158.129 400.92V398.48H167.129V405L167.609 404.52V415.96C167.609 416.147 167.742 416.293 168.009 416.4C168.302 416.507 168.649 416.573 169.049 416.6C169.449 416.627 169.822 416.64 170.169 416.64H170.529V419H158.129ZM187.253 393.52V415.08C187.253 415.4 187.333 415.667 187.493 415.88C187.679 416.067 187.906 416.2 188.173 416.28C188.466 416.36 188.773 416.413 189.093 416.44C189.439 416.467 189.773 416.48 190.093 416.48H190.773V419H176.773V416.48H177.173C177.839 416.48 178.399 416.387 178.853 416.2C179.306 416.013 179.533 415.627 179.533 415.04V394.56C179.533 393.973 179.306 393.587 178.853 393.4C178.399 393.213 177.839 393.12 177.173 393.12H176.773V390.6H198.933V398.6H195.773L195.413 395.28C195.359 394.8 195.173 394.44 194.853 394.2C194.533 393.933 194.079 393.76 193.493 393.68C192.906 393.573 192.186 393.52 191.333 393.52H187.253ZM186.173 403.44C187.293 403.387 188.373 403.333 189.413 403.28C190.453 403.227 191.479 403.16 192.493 403.08C193.533 403 194.559 402.933 195.573 402.88V406.6C194.559 406.493 193.533 406.413 192.493 406.36C191.479 406.28 190.439 406.213 189.373 406.16C188.333 406.08 187.266 406.027 186.173 406V403.44ZM211.21 389.52V415.44C211.21 415.92 211.41 416.24 211.81 416.4C212.237 416.56 212.743 416.64 213.33 416.64H213.37V419H201.77V416.64H201.81C202.423 416.64 202.93 416.56 203.33 416.4C203.73 416.24 203.93 415.92 203.93 415.44V393.36C203.93 393.093 203.863 392.88 203.73 392.72C203.597 392.56 203.397 392.427 203.13 392.32C202.89 392.213 202.557 392.12 202.13 392.04L201.77 391.96V389.52H211.21ZM220.855 395.64C219.655 395.64 218.695 395.36 217.975 394.8C217.255 394.213 216.895 393.4 216.895 392.36C216.895 391.32 217.255 390.52 217.975 389.96C218.695 389.373 219.655 389.08 220.855 389.08C222.082 389.08 223.042 389.373 223.735 389.96C224.455 390.52 224.815 391.32 224.815 392.36C224.815 393.4 224.455 394.213 223.735 394.8C223.042 395.36 222.082 395.64 220.855 395.64ZM224.615 398.48V415.44C224.615 415.92 224.815 416.24 225.215 416.4C225.642 416.56 226.148 416.64 226.735 416.64H226.775V419H215.175V416.64H215.215C215.828 416.64 216.322 416.56 216.695 416.4C217.095 416.24 217.295 415.92 217.295 415.44V402.36C217.295 401.933 217.148 401.64 216.855 401.48C216.588 401.293 216.135 401.133 215.495 401L215.135 400.92V398.48H224.615ZM252.294 402.56C251.308 402.373 250.401 402.253 249.574 402.2C248.774 402.12 248.068 402.107 247.454 402.16C246.868 402.187 246.374 402.307 245.974 402.52L245.254 402.24C245.681 401.44 246.121 400.733 246.574 400.12C247.054 399.507 247.574 399 248.134 398.6C248.721 398.2 249.361 397.92 250.054 397.76C250.748 397.6 251.494 397.573 252.294 397.68V402.56ZM239.294 412.52C237.401 412.52 235.734 412.24 234.294 411.68C232.881 411.093 231.774 410.267 230.974 409.2C230.201 408.107 229.814 406.827 229.814 405.36C229.814 403.867 230.214 402.587 231.014 401.52C231.814 400.427 232.921 399.587 234.334 399C235.774 398.387 237.428 398.08 239.294 398.08C241.188 398.08 242.854 398.387 244.294 399C245.734 399.587 246.854 400.427 247.654 401.52C248.481 402.587 248.894 403.867 248.894 405.36C248.894 406.827 248.481 408.107 247.654 409.2C246.854 410.267 245.734 411.093 244.294 411.68C242.854 412.24 241.188 412.52 239.294 412.52ZM239.294 409.88C239.908 409.88 240.428 409.733 240.854 409.44C241.281 409.12 241.601 408.64 241.814 408C242.054 407.333 242.174 406.467 242.174 405.4C242.174 404.36 242.054 403.507 241.814 402.84C241.601 402.147 241.281 401.64 240.854 401.32C240.428 400.973 239.908 400.8 239.294 400.8C238.734 400.8 238.241 400.973 237.814 401.32C237.388 401.64 237.054 402.147 236.814 402.84C236.601 403.507 236.494 404.36 236.494 405.4C236.494 406.44 236.601 407.293 236.814 407.96C237.054 408.627 237.388 409.12 237.814 409.44C238.241 409.733 238.734 409.88 239.294 409.88ZM237.974 428.48C235.948 428.48 234.161 428.32 232.614 428C231.094 427.707 229.894 427.213 229.014 426.52C228.134 425.853 227.694 424.947 227.694 423.8C227.694 423.107 227.894 422.507 228.294 422C228.721 421.493 229.374 421.04 230.254 420.64C231.161 420.267 232.348 419.92 233.814 419.6L235.214 420.72C234.681 420.933 234.241 421.173 233.894 421.44C233.574 421.733 233.334 422.027 233.174 422.32C233.041 422.64 232.974 422.987 232.974 423.36C232.974 423.867 233.161 424.293 233.534 424.64C233.934 425.013 234.548 425.293 235.374 425.48C236.228 425.667 237.321 425.76 238.654 425.76H239.814C241.174 425.76 242.321 425.627 243.254 425.36C244.188 425.12 244.881 424.773 245.334 424.32C245.814 423.893 246.054 423.4 246.054 422.84C246.054 422.333 245.868 421.96 245.494 421.72C245.121 421.48 244.441 421.36 243.454 421.36H233.174L232.974 420.76C232.094 420.413 231.361 420.027 230.774 419.6C230.188 419.173 229.748 418.667 229.454 418.08C229.188 417.493 229.054 416.827 229.054 416.08C229.054 415.253 229.268 414.507 229.694 413.84C230.121 413.173 230.761 412.573 231.614 412.04C232.468 411.48 233.508 411 234.734 410.6L236.894 411.56C236.308 411.773 235.814 412.013 235.414 412.28C235.014 412.52 234.708 412.787 234.494 413.08C234.308 413.347 234.214 413.653 234.214 414C234.214 414.48 234.414 414.827 234.814 415.04C235.241 415.253 235.881 415.36 236.734 415.36H243.734C245.521 415.36 247.014 415.56 248.214 415.96C249.414 416.36 250.321 416.973 250.934 417.8C251.574 418.6 251.894 419.627 251.894 420.88C251.894 422.587 251.374 424 250.334 425.12C249.321 426.24 247.921 427.08 246.134 427.64C244.348 428.2 242.321 428.48 240.054 428.48H237.974ZM263.179 389.52V416.24C263.179 416.32 263.272 416.4 263.459 416.48C263.672 416.533 263.912 416.573 264.179 416.6C264.472 416.627 264.739 416.64 264.979 416.64H265.099V419H253.699V416.64H253.779C254.179 416.64 254.526 416.613 254.819 416.56C255.139 416.48 255.392 416.36 255.579 416.2C255.766 416.013 255.859 415.76 255.859 415.44V393.36C255.859 393.093 255.792 392.88 255.659 392.72C255.552 392.56 255.366 392.427 255.099 392.32C254.832 392.213 254.486 392.12 254.059 392.04L253.699 391.96V389.52H263.179ZM278.899 419H267.539V416.64H267.579C267.819 416.64 268.086 416.627 268.379 416.6C268.672 416.573 268.926 416.533 269.139 416.48C269.352 416.427 269.459 416.36 269.459 416.28V404.84C269.459 404.173 269.379 403.627 269.219 403.2C269.059 402.773 268.819 402.453 268.499 402.24C268.206 402.027 267.792 401.92 267.259 401.92C266.592 401.92 265.979 402.093 265.419 402.44C264.859 402.787 264.326 403.307 263.819 404C263.339 404.693 262.872 405.547 262.419 406.56L262.299 403.04C262.832 402 263.459 401.12 264.179 400.4C264.926 399.653 265.779 399.08 266.739 398.68C267.726 398.28 268.792 398.08 269.939 398.08C271.326 398.08 272.526 398.347 273.539 398.88C274.552 399.387 275.339 400.147 275.899 401.16C276.459 402.173 276.739 403.453 276.739 405V415.44C276.739 415.92 276.939 416.24 277.339 416.4C277.739 416.56 278.232 416.64 278.819 416.64H278.899V419ZM279.779 401.2V398.68H279.899C280.485 398.68 280.992 398.627 281.419 398.52C281.845 398.413 282.179 398.24 282.419 398C282.685 397.733 282.819 397.373 282.819 396.92L286.619 398.48H294.899V401.2H279.779ZM289.779 412.12C289.779 413.16 289.885 413.973 290.099 414.56C290.339 415.147 290.672 415.573 291.099 415.84C291.525 416.08 292.045 416.2 292.659 416.2C293.165 416.2 293.645 416.147 294.099 416.04C294.552 415.907 294.885 415.813 295.099 415.76V418.68C294.885 418.787 294.565 418.893 294.139 419C293.739 419.107 293.245 419.2 292.659 419.28C292.099 419.36 291.459 419.4 290.739 419.4C289.165 419.4 287.752 419.173 286.499 418.72C285.272 418.267 284.285 417.507 283.539 416.44C282.819 415.373 282.459 413.933 282.459 412.12V399.2L282.779 398.88L282.899 392.92H289.779V412.12Z" fill="white"/>
</g>
<defs>
<linearGradient id="paint0_linear_1_2817" x1="357" y1="-207" x2="348" y2="376" gradientUnits="userSpaceOnUse">
<stop stop-color="white"/>
<stop offset="1" stop-color="white" stop-opacity="0"/>
</linearGradient>
<linearGradient id="paint1_linear_1_2817" x1="300" y1="0" x2="300" y2="600" gradientUnits="userSpaceOnUse">
<stop stop-color="white"/>
<stop offset="1" stop-color="white" stop-opacity="0"/>
</linearGradient>
<clipPath id="clip0_1_2817">
<rect width="375" height="812" fill="white"/>
</clipPath>
</defs>
</svg>
