<svg width="306" height="237" viewBox="0 0 306 237" fill="none" xmlns="http://www.w3.org/2000/svg">
<path d="M305.049 182.903H0V187.368H305.049V182.903Z" fill="#4769B8"/>
<path fill-rule="evenodd" clip-rule="evenodd" d="M38.2262 162.03V162.842V169.439V169.981V171.063V181.923V185.576L39.5455 187.368H35.8583H30.211H25.3036L26.3865 185.576H26.4208V171.334L25.7116 169.374H28.2473H27.4351H26.4551C26.2187 166.499 23.7821 164.2 20.8727 164.2C17.8947 164.2 15.4924 166.499 15.256 169.374H14.2761H13.4295H15.9996L15.2903 171.334V185.576H15.3247L16.6097 187.368H11.5687H6.12363H2.40204L3.45064 185.576V181.923V171.063V169.981V169.439V162.842V162.03V159.697V159.392L0.373462 156.989H0.270508V156.886V156.753H3.45064V154.419V153.779V153.237V152.864H38.23V153.237V153.779V154.419V156.753H41.4445V156.822V156.989H41.2767L38.2338 159.392V159.697V162.03H38.2262Z" fill="#4769B8"/>
<path fill-rule="evenodd" clip-rule="evenodd" d="M39.2102 167.106V170.827V171.132V171.437H39.4466V177.66V178.068V180.402V180.806V186.388V187.098V187.368H80.1439V187.098V186.388V180.806V180.402V178.068V177.66V171.437H80.5824V171.132V170.827V167.106V166.598H80.0066V163.113V154.656V154.114V146.538V145.996V130.469H80.8188V129.455H79.1944V127.933H78.6187V127.461H78.4509L77.8065 126.309L77.1315 125.089L76.4871 126.309L75.8427 127.461H75.6749V127.933H66.0659V129.455H64.4072V130.469H65.3223V145.996V146.538V146.946H61.33L60.6856 142.107L60.5522 140.822V133.92H61.6351V133.074H60.5522V132.158H59.637V133.074H58.5541V133.92H59.637V140.654L59.4349 142.107L58.7943 146.946H54.2948V146.538V145.996V130.469H55.107V129.455H53.4826V127.933H44.0795V127.461H43.9117L43.2673 126.309L42.6229 125.089L41.948 126.309L41.3379 127.461H41.1358V127.933H40.3579V129.455H38.6992V130.469H39.6106V145.996V146.538V154.114V154.656V163.113V166.598H39.2064V167.106H39.2102ZM54.2986 148.463H58.8324V151.304L58.5617 151.742L57.006 154.179H54.2986V154.11V148.463ZM61.3338 148.463H65.3262V154.114V154.183H63.1603L61.6389 151.746L61.3338 151.308V148.463V148.463ZM55.0079 160.913C55.1413 158.476 57.0365 156.551 59.4387 156.379C57.0365 156.547 55.1413 158.511 55.0079 160.913ZM60.1861 156.379C61.2004 156.448 62.1155 156.852 62.8591 157.462C62.1117 156.852 61.2004 156.448 60.1861 156.379ZM77.5739 154.518H67.7627V154.11V147.075H77.5739V154.11V154.518ZM74.0544 148.261C74.3937 148.261 74.6988 148.463 74.6988 148.7V153.741H73.4138V148.7C73.41 148.463 73.6807 148.261 74.0544 148.261ZM71.5187 148.261C71.858 148.261 72.1631 148.463 72.1631 148.7V153.741H70.8781V148.7C70.8742 148.463 71.145 148.261 71.5187 148.261ZM75.511 156.989H76.8303V155.67H75.511V156.989ZM68.5749 156.989H69.9286V155.67H68.5749V156.989ZM48.3426 148.261C48.6819 148.261 48.987 148.463 48.987 148.7V153.741H47.702V148.7C47.702 148.463 47.9727 148.261 48.3426 148.261ZM45.8069 148.261C46.1462 148.261 46.417 148.463 46.417 148.7V153.741H45.1663V148.7C45.1624 148.463 45.4332 148.261 45.8069 148.261ZM49.7992 156.989H51.1185V155.67H49.7992V156.989ZM42.8631 156.989H44.1825V155.67H42.8631V156.989ZM77.673 186.388H76.7579V177.458C76.7579 174.716 72.7312 172.486 72.7312 172.486C72.7312 172.486 68.7046 174.72 68.7046 177.458V186.388H67.3852V180.806V180.402V178.068V177.66V171.437H77.6692V177.66V178.068V180.402V180.806V186.388H77.673ZM64.9182 186.388H63.8696V177.458C63.8696 174.716 59.8429 172.486 59.8429 172.486C59.8429 172.486 55.8163 174.72 55.8163 177.458V186.388H54.6647V180.806V180.402V178.068V177.66V171.437H64.9143V177.66V178.068V180.402V180.806V186.388H64.9182ZM52.1671 186.388H51.0156V177.458C51.0156 174.716 46.9889 172.486 46.9889 172.486C46.9889 172.486 42.9623 174.72 42.9623 177.458V186.388H41.948V180.806V180.402V178.068V177.66V171.437H52.1633V177.66V178.068V180.402V180.806V186.388H52.1671Z" fill="#4769B8"/>
<path fill-rule="evenodd" clip-rule="evenodd" d="M208.901 184.966H209.575L204.466 175.086C201.793 172.516 198.14 170.961 194.148 170.961C190.495 170.961 187.177 172.28 184.607 174.446L179.162 184.966H180.142V187.368H167.288V184.966H168.981L179.57 164.501V161.424H181.839L185.595 150.664V150.427H185.663L186.712 147.38H186.308V144.54H187.494V143.998H185.732V140.917H188.405C190.399 125.287 191.349 98.4277 191.654 89.833H191.585V89.1581H191.688L191.722 87.4994H191.25V84.7272H192.47V81.3107H193.888V76.4718H194.361V72.041H194.903V76.4718H195.41V81.3107H196.798V84.7272H198.048V87.4994H197.541L197.61 89.1581H197.679V89.833H197.644C197.812 94.6718 198.151 105.36 198.83 116.593L198.864 116.696L198.83 116.731C199.234 123.529 199.741 130.465 200.352 136.422C200.519 138.046 200.721 139.499 200.859 140.921H203.566V144.002H201.808V144.543H202.96V147.384H202.689L203.738 150.431L207.558 161.428H208.74V164.303L208.977 164.2L219.734 184.97H221.762V187.372H208.908V184.966H208.901ZM182.785 160.711L186.201 158.717L184.203 156.787L182.785 160.711ZM184.714 155.197L187.757 153.203L186.033 151.476L184.714 155.197ZM186.506 150.122L188.741 148.7L187.387 147.552L186.506 150.122ZM201.934 147.38H201.831L200.546 148.597L202.815 149.916L201.934 147.38ZM203.387 151.51L201.797 153.134L204.538 154.858L203.387 151.51ZM205.179 156.65L203.013 158.713L206.632 160.81L205.179 156.65ZM194.254 87.4994L193.442 88.1743L192.63 87.4994H194.254ZM193.206 88.4145L192.256 89.1581L192.325 87.6366L193.206 88.4145ZM192.699 89.1581L193.374 88.5823L193.984 89.1581H192.699ZM193.644 88.3802L194.319 87.8387V87.873V87.9074V88.0751V88.1095V88.3116V88.3459V88.5823V88.6509V88.9903L193.644 88.3802ZM194.319 89.9016L193.305 90.9502L192.256 89.833H194.319V89.9016ZM193.034 91.2209L192.188 92.1361L192.222 90.3096L193.034 91.2209ZM192.188 92.5746L193.271 91.4574L194.251 92.5746H192.188ZM193.507 91.1904L194.319 90.3439V92.0675L193.507 91.1904ZM194.319 93.2533L193.236 94.3363L192.256 93.219H194.319V93.2533V93.2533ZM192.935 94.5727L192.054 95.5183L192.119 93.5889L192.935 94.5727ZM192.02 95.9912L193.206 94.8396L194.186 96.0255H192.02V95.9912ZM193.442 94.5727L194.323 93.6918V95.587L193.442 94.5727ZM194.319 96.7385L193.202 97.8215L192.153 96.6699H194.319V96.7385ZM192.901 98.0884L191.921 99.034V98.8319L191.989 97.0741L192.901 98.0884ZM191.986 99.4115L193.137 98.3286L194.117 99.4115H191.986ZM193.374 98.0884L194.319 97.2075V99.1027L193.374 98.0884ZM194.319 100.289L193.202 101.268L191.982 100.052H194.247L194.315 100.086V100.289H194.319ZM192.901 101.505L191.783 102.451L191.886 100.456L192.901 101.505ZM191.818 102.859L193.137 101.741L194.22 102.859H191.818ZM193.374 101.505L194.319 100.727V101.539V101.677V101.913V102.016V102.287V102.42L193.374 101.505ZM194.964 100.186L195.063 100.052H197.328L196.18 101.268L194.964 100.22V100.186ZM191.886 100.052V100.086V100.052ZM194.319 103.537L193.034 104.62L191.917 103.503H194.319V103.537ZM192.763 104.857L191.646 105.802L191.715 103.808L192.763 104.857ZM191.581 106.245L193.004 105.093L194.155 106.309H191.581V106.245ZM193.271 104.857L194.251 103.976V104.178V104.449V104.685V105.024V105.261V105.6V105.871V105.905L193.271 104.857ZM194.22 106.988L192.935 108.105L191.783 106.923H194.22V106.988ZM192.664 108.342L191.478 109.39L191.547 107.225L192.664 108.342ZM191.581 109.695L192.901 108.578L194.018 109.695H191.581ZM193.206 108.342L194.22 107.43V107.633V107.8V108.308V108.51L194.186 109.051V109.219V109.387L193.206 108.342ZM191.65 106.92L191.547 107.225L191.581 106.92H191.65ZM194.083 110.336L192.866 111.419L191.783 110.336H194.083ZM192.561 111.69L191.276 112.841L191.379 110.542L192.561 111.69ZM191.513 113.146L192.832 111.93L194.083 113.146H191.513ZM193.137 111.655L194.186 110.744L194.151 111.32V111.423V112.132V112.201L194.117 112.609L193.137 111.655ZM193.881 113.787L192.699 114.767L191.719 113.787H193.881ZM192.359 115.106L191.074 116.155L191.246 113.92L192.359 115.106ZM191.276 116.563L192.664 115.377L193.782 116.563H191.276ZM193.034 115.106L194.083 114.157V114.599L194.014 116.121L193.034 115.106ZM193.984 117.203L192.699 118.286L191.684 117.203H193.984ZM192.359 118.557L190.868 119.842L191.04 117.203L192.359 118.557ZM191.379 119.979L192.664 118.897L193.747 119.979H191.379ZM193.034 118.557L193.98 117.779V117.917L193.946 118.084V118.763V118.965L193.911 119.507L193.034 118.557ZM193.679 120.62L192.462 121.6L191.517 120.62H193.679ZM192.119 121.939L190.632 123.19L190.834 120.62L192.119 121.939ZM191.074 123.396L192.428 122.244L193.579 123.396H191.074ZM192.798 121.939L193.881 120.994L193.846 121.367V121.638L193.778 122.923L192.798 121.939ZM193.442 124.037L192.157 125.085L191.143 124.037H193.442ZM191.783 125.356L190.396 126.473L190.598 124.071L191.783 125.356ZM190.666 126.813L192.119 125.695L193.133 126.813H190.666ZM192.428 125.39L193.713 124.41C193.679 125.119 193.644 125.897 193.576 126.61L192.428 125.39ZM193.339 127.487L192.054 128.467L191.074 127.487H193.339ZM191.715 128.776L190.125 130.027C190.193 129.215 190.258 128.334 190.327 127.491H190.46L191.715 128.776ZM190.598 130.229L191.986 129.077L193.069 130.229H190.598ZM192.359 128.807L193.507 127.892C193.473 128.57 193.438 129.245 193.374 129.89L192.359 128.807ZM192.798 130.87L191.681 131.785L190.834 130.87H192.798ZM191.311 132.09L189.824 133.241C189.927 132.498 189.991 131.686 190.026 130.873H190.193L191.311 132.09ZM190.026 133.68L191.581 132.395L192.836 133.68H190.026ZM191.951 132.124L193.305 131.045C193.236 131.789 193.206 132.601 193.103 133.31L191.951 132.124ZM192.866 134.324L191.379 135.476L190.331 134.324H192.866ZM191.04 135.743L189.583 136.959H189.48C189.549 136.113 189.618 135.236 189.717 134.355L191.04 135.743ZM190.262 136.959L191.345 136.082L192.157 136.959H190.262ZM191.715 135.811L193 134.797C192.897 135.51 192.832 136.254 192.763 136.894L191.715 135.811ZM192.596 137.604L190.937 138.957L189.686 137.604H192.596ZM190.598 139.228L189.076 140.448C189.145 139.636 189.278 138.789 189.347 137.943L190.598 139.228ZM189.145 140.917L190.868 139.564L192.02 140.78V140.814L191.986 140.913H189.145V140.917ZM191.242 139.262L192.561 138.214C192.428 138.957 192.325 139.67 192.188 140.277L191.242 139.262ZM195.101 87.4994L195.944 88.1743L196.721 87.4994H195.101ZM196.184 88.4145L196.996 89.0589L196.962 87.7053L196.184 88.4145ZM196.622 89.1581L195.978 88.5823L195.337 89.1581H196.622ZM195.707 88.3802L194.964 87.7358V87.873V87.9074V88.0751V88.1095V88.3116V88.3459V88.5823V88.6509V89.0589L195.707 88.3802ZM194.964 89.8368L196.077 90.954L197.027 89.8711V89.8368H194.964V89.8368ZM196.317 91.2209L197.061 92.0331L197.027 90.4431L196.317 91.2209ZM197.095 92.5098L196.115 91.4612L195.067 92.5784H197.095V92.5098ZM195.844 91.1904L194.967 90.2753V92.1704L195.844 91.1904ZM195.032 93.219L196.149 94.3363L197.061 93.219H195.032ZM196.386 94.5727L197.198 95.3849L197.164 93.6918L196.386 94.5727ZM197.229 95.8577L196.18 94.8434L195.2 96.0293H197.229V95.8577ZM195.909 94.5727L194.964 93.627V95.7586L195.909 94.5727ZM194.964 96.6699L196.18 97.8215L197.229 96.6699H194.964ZM196.455 98.0884L197.332 98.9006L197.263 97.1732L196.455 98.0884ZM197.332 99.4115L196.218 98.3286L195.269 99.4115H197.332ZM195.944 98.0884L194.964 97.1427V99.2056L195.944 98.0884ZM196.455 101.505L197.469 102.386L197.4 100.525L196.455 101.505ZM197.503 102.824L196.218 101.741L195.101 102.859H197.503V102.824ZM195.944 101.505L194.964 100.658V101.539V101.677V101.913V102.016V102.287V102.454V102.489L195.944 101.505ZM195.032 103.503L196.352 104.62L197.469 103.503H195.032ZM196.622 104.857L197.637 105.737L197.534 103.945L196.622 104.857ZM197.637 106.176L196.386 105.093L195.234 106.309H197.671L197.637 106.176ZM196.115 104.857L194.998 103.907V104.178V104.449V104.685V105.024V105.261V105.6V105.871V105.974L196.115 104.857ZM195.032 106.92L196.42 108.102L197.602 106.92H195.032ZM196.721 108.342L197.804 109.291L197.701 107.328L196.721 108.342ZM197.804 109.695L196.451 108.578L195.334 109.695H197.804ZM196.184 108.342L195.032 107.328V107.633V107.8V108.308V108.51L195.067 109.051V109.219V109.455L196.184 108.342ZM195.303 110.336L196.455 111.419L197.537 110.336H195.303ZM196.79 111.69L197.976 112.738L197.873 110.641L196.79 111.69ZM197.873 113.146L196.554 111.93L195.303 113.146H197.873ZM196.214 111.655L195.063 110.641L195.097 111.316V111.419V112.128V112.197L195.131 112.704L196.214 111.655ZM195.471 113.787L196.657 114.767L197.637 113.787H195.471ZM196.992 115.106L198.144 116.052L198.041 114.023L196.992 115.106ZM198.075 116.563L196.721 115.377L195.536 116.563H198.075ZM196.352 115.106L195.135 114.092L195.204 114.599L195.238 116.224L196.352 115.106ZM195.402 117.203L196.619 118.286L197.701 117.203H195.402ZM196.992 118.557L198.38 119.777L198.212 117.341L196.992 118.557ZM197.976 119.979L196.725 118.897L195.642 119.979H197.976ZM196.352 118.557L195.269 117.676V117.913L195.303 118.08V118.759V118.961L195.337 119.602L196.352 118.557ZM195.707 120.62L196.859 121.6L197.873 120.62H195.707ZM197.229 121.939L198.617 123.091L198.479 120.689L197.229 121.939ZM198.312 123.396L196.958 122.244L195.772 123.396H198.312ZM196.588 121.939L195.402 120.925L195.436 121.364V121.634L195.471 123.057L196.588 121.939ZM195.909 124.037L197.229 125.085L198.178 124.037H195.909ZM197.602 125.356L198.822 126.405L198.651 124.204L197.602 125.356ZM198.651 126.813L197.263 125.695L196.18 126.813H198.651ZM196.893 125.39L195.539 124.273C195.574 125.119 195.642 125.932 195.677 126.71L196.893 125.39ZM196.012 127.487L197.297 128.467L198.277 127.487H196.012ZM197.671 128.776L199.158 129.962C199.055 129.116 198.99 128.338 198.956 127.491H198.922L197.671 128.776ZM198.788 130.229L197.332 129.077L196.283 130.229H198.788ZM196.992 128.807L195.742 127.792C195.776 128.536 195.844 129.28 195.879 129.993L196.992 128.807ZM196.588 130.87L197.705 131.785L198.552 130.87H196.588ZM198.075 132.09L199.429 133.173C199.36 132.395 199.261 131.651 199.227 130.873H199.192L198.075 132.09ZM199.36 133.68L197.736 132.395L196.55 133.68H199.36ZM197.4 132.124L195.947 130.908C195.982 131.789 196.081 132.635 196.153 133.444L197.4 132.124ZM196.519 134.324L197.942 135.476L199.059 134.324H196.519ZM198.312 135.743L199.799 136.959C199.696 136.147 199.631 135.3 199.528 134.488L198.312 135.743ZM199.059 136.959L198.045 136.082L197.198 136.959H199.059ZM197.671 135.811L196.283 134.694C196.352 135.472 196.416 136.25 196.554 136.959L197.671 135.811ZM196.756 137.604L198.414 138.957L199.665 137.604H196.756ZM198.788 139.228L200.176 140.345C200.108 139.602 199.974 138.824 199.905 138.046L198.788 139.228ZM200.172 140.917L198.479 139.564L197.229 140.883L197.263 140.917H200.172V140.917ZM198.109 139.262L196.721 138.111C196.824 138.957 196.958 139.701 197.091 140.345L198.109 139.262ZM186.945 150.423H190.735L189.145 149.07L186.945 150.423ZM190.8 147.38L189.145 148.429L187.959 147.38H190.8ZM189.549 148.803L191.749 147.38H192.054L191.65 150.427H191.517L189.549 148.803ZM200.142 148.936L198.552 150.423H202.716L200.142 148.936ZM198.414 147.38L200.108 148.36L201.156 147.38H198.414ZM199.7 148.7L197.332 147.38L197.839 150.427L199.7 148.7ZM185.118 155.769H190.361L188.264 153.706L185.118 155.769ZM191.006 151.068L188.264 152.86L186.472 151.068H191.006ZM188.805 153.367L191.444 151.678L190.834 155.434L188.805 153.367ZM201.255 153.638L199.124 155.769H204.737L201.255 153.638ZM198.483 151.068L201.259 152.795L202.983 151.068H198.483ZM200.748 153.302L197.976 151.579L198.552 155.197L198.586 155.468L200.748 153.302ZM202.475 159.22L200.241 161.42H206.094L202.475 159.22ZM199.227 156.414L202.441 158.343L204.435 156.414H199.227ZM201.865 158.919L198.857 157.092L199.497 161.188L201.865 158.919ZM183.124 161.42H189.046L186.746 159.22L183.124 161.42ZM189.991 156.414L186.811 158.343L184.783 156.414H189.991ZM187.353 158.919L190.601 156.989L189.927 161.355L187.353 158.919ZM200.748 167.884V168.932C200.985 169.035 201.225 169.134 201.427 169.203L200.748 167.884ZM200.477 168.829V167.342L200.039 166.496V168.661L200.477 168.829ZM199.734 168.593V165.954L199.463 165.413H199.295V168.421L199.734 168.593ZM198.99 168.322V165.413H198.582V168.219L198.99 168.322ZM198.277 168.185V165.413H197.839V168.051L198.277 168.185ZM197.534 168.017V165.413H197.091V167.952L197.534 168.017ZM196.824 167.884V165.413H196.386V167.815L196.824 167.884ZM196.115 167.781V165.413H195.673V167.746L196.115 167.781ZM195.402 167.746V165.413H194.964V167.712L195.402 167.746ZM194.659 167.712V165.413H194.22V167.712H194.659ZM193.915 167.712V165.413H193.507V167.712H193.915ZM193.206 167.712V165.413H192.767V167.746L193.206 167.712ZM192.462 167.781V165.413H192.02V167.815L192.462 167.781ZM191.749 167.849V165.413H191.311V167.884L191.749 167.849ZM191.04 167.983V165.413H190.598V168.051L191.04 167.983ZM190.331 168.086V165.413H189.892V168.219L190.331 168.086ZM189.583 168.288V165.413H189.278L189.145 165.649V168.421L189.583 168.288ZM188.84 168.49V166.221L188.432 167.068V168.623L188.84 168.49ZM210.727 184.188L212.485 181.958L208.695 180.265L210.727 184.188ZM213.129 181.21L214.853 179.079H208.393L213.129 181.21ZM215.497 179.723L214.01 181.618L217.225 183.006L215.497 179.723ZM213.366 182.362L211.303 184.966H218.205L217.899 184.356L213.366 182.362ZM207.551 178.065L209.511 176.68L206.266 175.529L207.551 178.065ZM210.289 176.169L212.115 174.919H206.906L210.289 176.169ZM213.095 175.052L211.097 176.44L214.414 177.626L213.095 175.052ZM210.289 176.982L208.226 178.434H214.281L210.289 176.982ZM206.262 174.274H211.978L208.222 172.921L206.262 174.274ZM205.45 174.007L207.41 172.654L204.13 171.472L205.45 174.007ZM208.226 172.078L210.155 170.759H204.538L208.226 172.078ZM210.963 171.029L209.038 172.383L212.283 173.569L210.963 171.029ZM203.455 170.149H210.525L209.881 168.898H202.811L203.455 170.149ZM177.946 184.257L176.154 181.958L180.043 180.265L177.946 184.257ZM175.509 181.21L173.82 179.079H180.283L175.509 181.21ZM173.21 179.758L174.632 181.618L171.551 182.972L173.21 179.758ZM175.277 182.362L177.374 184.966H170.541L170.846 184.326L175.277 182.362ZM180.653 179.079L181.16 178.099L179.162 176.68L182.48 175.494L181.16 178.099L180.653 179.079ZM178.354 176.169L176.562 174.919H181.77L178.354 176.169ZM175.646 175.086L177.576 176.44L174.327 177.626L175.646 175.086ZM178.354 176.982L180.451 178.434H174.361L178.354 176.982ZM182.415 174.274H176.695L180.451 172.921L182.415 174.274ZM209.545 168.253H202.475L201.019 165.413H208.088L209.545 168.253ZM183.223 174.042L181.229 172.654L184.611 171.472L183.223 174.042ZM180.451 172.078L178.525 170.759H184.108L180.451 172.078ZM177.709 171.06L179.639 172.379L176.424 173.531L177.709 171.06ZM185.29 170.149H178.186L178.83 168.898H185.934L185.29 170.149ZM186.235 168.253H179.166L180.653 165.413H187.723L186.235 168.253ZM192.527 149.241H196.958L198.819 161.42H190.598L191.547 155.193L192.527 149.241ZM196.824 148.597H192.596L192.798 147.38H196.622L196.824 148.597ZM188.131 168.726V167.609L187.387 169.031C187.623 168.898 187.86 168.829 188.131 168.726ZM202.914 172.044L202.544 171.334C200.073 169.878 197.232 169.069 194.155 169.069C191.345 169.069 188.676 169.779 186.373 171.029L186.033 171.708C188.436 170.354 191.208 169.542 194.151 169.542C197.4 169.538 200.344 170.454 202.914 172.044Z" fill="#4769B8"/>
<path fill-rule="evenodd" clip-rule="evenodd" d="M131.971 158.511V160.913H132.276V161.355H132.173C140.798 166.804 135.963 168.494 136.978 169.576C135.319 169.542 133.664 169.542 131.971 169.576H126.896C127.54 168.391 122.533 166.835 131.464 161.355H131.361V160.913H131.666V158.648C131.597 158.648 131.532 158.648 131.464 158.648C131.09 158.648 130.755 158.412 130.617 158.038C130.785 158.21 130.991 158.274 131.227 158.274C131.734 158.274 132.173 157.87 132.173 157.359C132.173 157.256 132.139 157.123 132.104 157.054C132.306 157.222 132.409 157.458 132.409 157.699C132.409 158.038 132.242 158.343 131.971 158.511ZM115.125 171.67C115.228 171.468 114.415 171.228 115.902 170.316C117.325 171.228 116.547 171.502 116.715 171.67C116.173 171.67 115.666 171.67 115.125 171.67ZM115.056 173.226H116.68V172.345H115.056V173.226ZM115.361 173.024H115.666V172.516H115.361V173.024ZM116.105 173.024H116.375V172.516H116.105V173.024ZM115.735 173.024H116.005V172.516H115.735V173.024ZM114.854 172.246H116.917V172.078H114.854V172.246ZM114.854 171.941H116.917V171.769H114.854V171.941ZM114.854 173.496H116.917V173.363H114.854V173.496ZM114.854 173.698H116.917V173.565H114.854V173.698ZM115.022 173.733H116.715V177.927H115.022V173.733ZM116.715 178.202V181.82H115.022V178.202H116.715ZM116.715 182.091V184.326H118.709V173.973L122.057 173.294V184.326H122.19V171.472H122.629V171.334H126.552V170.148H137.107V171.128V171.33H141.168V171.468H141.507V184.322H141.71V173.123L144.958 174.038V184.322H147.159V182.087H148.817V184.322H151.83V180.703H154.537V184.322H157.988V185.233H105.752V184.322H109.306V180.703H112.047V184.322H115.025V182.087H116.715V182.091ZM111.91 163.754C111.742 163.449 113.062 163.079 110.659 161.622C108.326 163.041 109.611 163.483 109.34 163.754C110.183 163.754 111.064 163.754 111.91 163.754ZM111.979 166.293H109.374V164.871H111.979V166.293ZM111.502 165.988H111.064V165.176H111.502V165.988ZM110.286 165.988H109.847V165.176H110.286V165.988ZM110.896 165.988H110.457V165.176H110.896V165.988ZM112.383 164.802H109.001V164.433H112.383V164.802ZM112.383 164.261H109.001V163.925H112.383V164.261ZM112.383 166.732H109.001V166.392H112.383V166.732ZM112.383 167.071H109.001V166.835H112.383V167.071ZM157.988 187.368H105.752V185.542H157.984V187.368H157.988ZM112.044 167.136H109.302V173.935H112.044V167.136ZM151.933 163.754C152.135 163.449 150.781 163.079 153.218 161.622C155.551 163.041 154.266 163.483 154.537 163.754C153.656 163.754 152.81 163.754 151.933 163.754ZM154.503 166.293V164.871H154.876V164.433H151.494V164.871H151.868V166.293H151.494V166.701V166.736V167.14H151.833V173.939H154.541V167.14H154.88V166.736V166.701V166.293H154.503ZM152.371 165.988H152.81V165.176H152.371V165.988ZM153.557 165.988H154.03V165.176H153.557V165.988ZM152.981 165.988H153.423V165.176H152.981V165.988ZM151.49 164.364H154.872V163.925H151.49V164.364ZM154.537 174.377V180.23H151.83V174.377H154.537ZM127.201 184.326H136.505V172.044H127.201V184.326ZM148.752 171.67C148.649 171.468 149.462 171.228 147.975 170.316C146.518 171.228 147.33 171.502 147.162 171.67C147.704 171.67 148.211 171.67 148.752 171.67ZM148.817 173.226H147.193V172.345H148.817V173.226ZM148.482 173.024H148.211V172.516H148.482V173.024ZM147.769 173.024H147.498V172.516H147.769V173.024ZM148.108 173.024H147.837V172.516H148.108V173.024ZM149.019 172.28H146.956V172.078H149.019V172.28ZM149.019 171.941H146.956V171.769H149.019V171.941ZM149.019 173.496H146.956V173.329H149.019V173.496ZM149.019 173.733H148.817V177.927H147.159V173.733H146.956V173.565H149.019V173.733V173.733ZM147.162 178.202V181.82H148.821V178.202H147.162ZM109.306 174.377V180.23H112.047V174.377H109.306ZM121.145 180.806V183.311L119.422 183.346V181.012C119.422 180.573 120.234 179.86 120.268 179.86C120.299 179.857 121.145 180.368 121.145 180.806ZM121.145 176.612V179.083L119.422 179.285V176.814C119.422 176.341 120.234 175.628 120.268 175.628C120.299 175.594 121.145 176.105 121.145 176.612ZM142.693 180.806V183.311L144.421 183.346V181.012C144.421 180.573 143.574 179.86 143.54 179.86C143.509 179.857 142.693 180.368 142.693 180.806ZM142.693 176.612V179.083L144.421 179.285V176.814C144.421 176.341 143.574 175.628 143.54 175.628C143.509 175.594 142.693 176.105 142.693 176.612ZM137.622 171.128C137.828 170.755 136.2 170.316 139.178 168.524H139.143H139.04V168.391H139.143V167.78C139.109 167.78 139.075 167.78 139.04 167.78C138.937 167.78 138.804 167.678 138.77 167.578C138.804 167.613 138.903 167.647 138.972 167.647C139.14 167.647 139.277 167.514 139.277 167.376C139.277 167.342 139.277 167.311 139.242 167.277C139.311 167.311 139.342 167.376 139.342 167.479C139.342 167.582 139.307 167.647 139.242 167.716V168.391H139.311V168.524H139.242H139.178C142.018 170.251 140.531 170.793 140.802 171.128H137.622V171.128ZM132.714 177.153V179.083H134.678V177.084C134.678 175.933 132.005 174.377 131.868 174.377C131.731 174.377 129.061 175.933 129.061 177.084V179.083H130.991V177.153C130.991 176.814 131.803 176.341 131.872 176.341C131.902 176.337 132.714 176.814 132.714 177.153ZM132.714 181.447V183.342H130.991V181.447C130.991 181.073 131.803 180.604 131.872 180.604C131.902 180.604 132.714 181.077 132.714 181.447ZM134.678 179.757H129.061V183.342H128.249V173.058H135.456V183.342H134.678V179.757V179.757ZM123.784 177.592H124.459V178.877H123.784V177.592ZM123.784 182.057H124.459V183.342H123.784V182.057ZM139.311 182.057H139.986V183.342H139.311V182.057ZM139.311 177.592H139.986V178.877H139.311V177.592ZM123.174 172.143H123.784V173.058H123.174V172.143ZM140.089 172.143H140.733V173.058H140.089V172.143ZM139.075 172.143H139.685V173.058H139.075V172.143ZM138.026 172.143H138.636V173.058H138.026V172.143ZM125.271 172.143H125.881V173.058H125.271V172.143ZM124.223 172.143H124.833V173.058H124.223V172.143ZM138.4 179.655H139.345C139.143 179.757 138.941 179.925 138.838 179.994C138.636 180.162 138.365 180.471 138.365 180.772V183.479H140.97V180.772C140.97 180.467 140.665 180.162 140.463 179.994C140.394 179.925 140.158 179.757 139.956 179.655H140.97V179.384H138.4V179.655V179.655ZM122.838 175.052H123.99C123.788 175.155 123.414 175.46 123.315 175.525C123.113 175.693 122.808 175.998 122.808 176.303V179.01H125.412V176.303C125.412 175.998 125.107 175.693 124.905 175.525C124.802 175.422 124.467 175.151 124.23 175.052H125.416V174.781H122.846V175.052H122.838ZM122.838 179.655H123.818C123.616 179.757 123.38 179.925 123.311 179.994C123.109 180.162 122.804 180.471 122.804 180.772V183.479H125.409V180.772C125.409 180.467 125.138 180.162 124.901 179.994C124.833 179.925 124.631 179.757 124.429 179.655H125.409V179.384H122.838V179.655ZM138.331 175.052H139.548C139.311 175.155 138.937 175.426 138.869 175.525C138.632 175.693 138.362 175.998 138.362 176.303V179.01H140.966V176.303C140.966 175.998 140.661 175.693 140.459 175.525C140.356 175.456 139.986 175.151 139.784 175.052H140.867V174.781H138.331V175.052V175.052ZM124.665 167.273C124.734 167.308 124.768 167.372 124.768 167.475C124.768 167.578 124.734 167.643 124.665 167.712V168.387H124.768V168.52H124.665H124.596H124.562H124.459V168.387H124.562V167.777C124.528 167.777 124.493 167.777 124.459 167.777C124.356 167.777 124.257 167.674 124.188 167.575C124.257 167.609 124.326 167.643 124.39 167.643C124.558 167.643 124.695 167.51 124.695 167.372C124.699 167.342 124.699 167.308 124.665 167.273ZM124.596 168.524C127.437 170.251 125.984 170.793 126.221 171.128H123.041C123.277 170.759 121.618 170.316 124.596 168.524Z" fill="#4769B8"/>
<path fill-rule="evenodd" clip-rule="evenodd" d="M169.421 134.458H168.814V131.819V130.126L168.746 130.195L168.643 130.126V131.514L168.509 131.346L168.376 131.583L168.239 131.819L168.071 131.583L167.934 131.346L167.766 131.583L167.632 131.819L167.465 131.583L167.327 131.346L167.16 131.583L167.022 131.819L166.889 131.583L166.721 131.346L166.584 131.583L166.416 131.819L166.283 131.583L166.115 131.346L165.981 131.583L165.844 131.819L165.672 131.583L165.539 131.346L165.371 131.583L165.234 131.819L165.066 131.583L164.933 131.346L164.765 131.583L164.631 131.819L164.494 131.583L164.326 131.346L164.193 131.583L164.025 131.819L163.892 131.583L163.724 131.346L163.59 131.583L163.457 131.819L163.285 131.583L163.148 131.346L162.98 131.583L162.847 131.819L162.679 131.583L162.546 131.346L162.374 131.583L162.241 131.819L162.107 131.583L161.936 131.346L161.802 131.583L161.634 131.819L161.501 131.583L161.333 131.346L161.2 131.583L161.062 131.819L160.895 131.583L160.761 131.346L160.59 131.583L160.456 131.819L160.288 131.583L160.151 131.346L159.983 131.583L159.85 131.819L159.716 131.583L159.549 131.346L159.411 131.583L159.244 131.819L159.11 131.583L158.942 131.346L158.805 131.583L158.672 131.819L158.504 131.583L158.37 131.346L158.233 131.548V130.13L158.134 130.199L158.031 130.13V131.823V134.462H157.455V132.769L157.387 132.868L157.284 132.769V134.462V146.808H169.63V134.462V132.769L169.527 132.868L169.459 132.769V134.458H169.421ZM169.794 187.369H156.7V179.555H169.794V187.369V187.369ZM168.509 178.945V171.639H167.968V178.945H167.56V171.639H166.984V178.945H166.58V171.639H166.038V178.945H165.6V171.639H165.059V178.945H164.62V171.639H164.079V178.945H163.64V171.639H163.099V178.945H162.66V171.639H162.119V178.945H161.711V171.639H161.135V178.945H160.731V171.639H160.189V178.945H159.751V171.639H159.209V178.945H158.771V171.639H158.229V178.945H157.791V163.823H168.956V178.945H168.509ZM167.968 171.231H168.509V164.162H167.968V171.231ZM158.225 171.231H158.767V164.162H158.225V171.231ZM159.205 171.231H159.747V164.162H159.205V171.231ZM160.185 171.231H160.727V164.162H160.185V171.231ZM161.135 171.231H161.711V164.162H161.135V171.231ZM162.115 171.231H162.656V164.162H162.115V171.231ZM163.095 171.231H163.636V164.162H163.095V171.231ZM164.079 171.231H164.62V164.162H164.079V171.231ZM165.059 171.231H165.6V164.162H165.059V171.231ZM166.038 171.231H166.58V164.162H166.038V171.231ZM166.988 171.231H167.564V164.162H166.988V171.231ZM158.496 129.756L158.088 129.417L157.718 129.756L158.088 130.16L158.496 129.756ZM169.119 129.756L168.75 129.417L168.376 129.756L168.75 130.16L169.119 129.756ZM169.863 132.395L169.489 132.056L169.15 132.395L169.489 132.799L169.863 132.395ZM157.684 132.395L157.348 132.056L156.975 132.395L157.348 132.799L157.684 132.395ZM157.989 129.451V129.215H158.191V129.451L158.092 129.348L157.989 129.451ZM168.643 129.451V129.215H168.814V129.451L168.746 129.348L168.643 129.451ZM157.245 132.09V131.819H157.413V132.056L157.345 131.987L157.245 132.09ZM169.421 132.056V131.819H169.589V132.09L169.486 131.987L169.421 132.056ZM160.761 127.487L159.137 131.514L159.171 131.548L159.205 131.617L159.51 131.179L159.747 131.552L159.815 131.621L159.884 131.552L160.121 131.179L160.426 131.651L160.494 131.548L160.734 131.144L160.937 131.548L161.04 131.651L161.31 131.179L161.581 131.552L161.615 131.621L161.684 131.552L161.92 131.179L162.157 131.552L162.225 131.621L162.294 131.552L162.53 131.179L162.767 131.552L162.835 131.655L162.904 131.552L163.141 131.148L163.346 131.552L163.449 131.655L163.484 131.552L163.72 131.179L163.991 131.552L164.025 131.621L164.33 131.182L164.567 131.556L164.635 131.625L164.704 131.556L164.94 131.182L165.245 131.655L165.314 131.552L165.55 131.148L165.787 131.552L165.855 131.655L166.126 131.182L166.397 131.556L166.431 131.625L166.736 131.186L166.973 131.56L167.041 131.629L167.11 131.56L167.346 131.186L167.651 131.625L167.686 131.556L167.72 131.522L166.096 127.495H160.761V127.487ZM161.303 130.229L160.967 129.653L160.864 129.52L160.422 130.229L160.555 130.298L160.86 129.791L161.131 130.298L161.303 130.229ZM163.842 128.875L163.503 128.265L163.434 128.132L162.992 128.875L163.125 128.944L163.43 128.437L163.701 128.944L163.842 128.875ZM165.531 128.875L165.161 128.265L165.093 128.132L164.654 128.875L164.792 128.944L165.097 128.437L165.367 128.944L165.531 128.875ZM166.378 130.229L166.004 129.653L165.936 129.52L165.528 130.229L165.63 130.298L165.936 129.791L166.241 130.298L166.378 130.229ZM164.654 130.229L164.349 129.653L164.246 129.52L163.808 130.229L163.941 130.298L164.246 129.791L164.551 130.298L164.654 130.229ZM162.961 130.229L162.656 129.653L162.553 129.52L162.115 130.229L162.248 130.298L162.553 129.791L162.824 130.298L162.961 130.229ZM162.321 128.875L162.016 128.265L161.913 128.132L161.474 128.875L161.608 128.944L161.913 128.437L162.183 128.944L162.321 128.875ZM159.713 132.429H158.496V134.088H159.713V132.429ZM168.17 132.429H166.984V134.088H168.17V132.429ZM166.515 132.429H165.264V134.088H166.515V132.429ZM164.822 132.429H163.571V134.088H164.822V132.429ZM163.129 132.429H161.878V134.088H163.129V132.429ZM161.406 132.429H160.189V134.088H161.406V132.429ZM163.907 117.238H162.927V116.529H163.907V117.238ZM160.731 122.687L160.357 122.313L159.983 122.687L160.357 123.057L160.731 122.687ZM166.851 122.687L166.481 122.313L166.107 122.687L166.481 123.057L166.851 122.687ZM166.275 124.14L166.141 124.41L166.004 124.681H165.97L165.867 124.41L165.699 124.14L165.531 124.41L165.428 124.681L165.295 124.41L165.127 124.14L164.994 124.41L164.86 124.681L164.723 124.41L164.59 124.14L164.418 124.41L164.284 124.681L164.151 124.41L164.018 124.14L163.85 124.41L163.747 124.681H163.712L163.579 124.41L163.446 124.14L163.274 124.41L163.171 124.681H163.137L163.003 124.41L162.87 124.14L162.702 124.41L162.599 124.681H162.565L162.427 124.41L162.294 124.14L162.126 124.41L162.023 124.681H161.993L161.856 124.41L161.688 124.14L161.554 124.41L161.421 124.681L161.318 124.41L161.15 124.14L160.982 124.41L160.879 124.681H160.845L160.742 124.41L160.57 124.14L160.468 124.307V123.125L160.365 123.194L160.262 123.125V124.681V127.285H166.588V124.681V123.125L166.488 123.194L166.385 123.125V124.311L166.275 124.14ZM163.434 116.121C163.434 116.224 163.4 116.323 163.4 116.426H163.434C163.434 116.327 163.434 116.224 163.434 116.121ZM163.301 117.341C162.927 119.674 161.844 121.737 161.101 123.937V123.903L161.371 124.376L161.406 124.445L161.676 123.903L161.947 124.376L161.981 124.445L162.012 124.376L162.283 123.903L162.553 124.445L162.588 124.376L162.858 123.903L163.129 124.445L163.163 124.376L163.434 123.903L163.671 124.376L163.705 124.445L163.739 124.376L164.01 123.903L164.281 124.445L164.315 124.376L164.586 123.903L164.856 124.445L164.891 124.376L165.161 123.903L165.364 124.376L165.432 124.445L165.467 124.376L165.703 123.903C165.772 123.8 163.64 118.286 163.503 117.341H163.301V117.341ZM163.842 120.521L163.503 119.979L163.434 119.812L162.992 120.521L163.125 120.62L163.43 120.113L163.701 120.62L163.842 120.521ZM162.557 123.43L162.252 122.82L162.153 122.687L161.711 123.43L161.844 123.499L162.149 122.958L162.42 123.499L162.557 123.43ZM163.842 123.43L163.503 122.82L163.434 122.687L162.992 123.43L163.125 123.499L163.43 122.958L163.701 123.499L163.842 123.43ZM165.127 123.43L164.788 122.82L164.685 122.687L164.243 123.43L164.41 123.499L164.681 122.958L164.986 123.499L165.127 123.43ZM163.095 122.042L162.755 121.432L162.652 121.299L162.248 122.042L162.382 122.111L162.652 121.57L162.957 122.111L163.095 122.042ZM164.586 122.042L164.246 121.432L164.178 121.299L163.739 122.042L163.842 122.111L164.178 121.57L164.448 122.111L164.586 122.042ZM160.254 122.279V122.042H160.456V122.279L160.353 122.18L160.254 122.279ZM166.378 122.279V122.042H166.58V122.279L166.481 122.18L166.378 122.279ZM161.539 125.188H160.59V126.881H161.539V125.188ZM166.241 125.188H165.295V126.881H166.241V125.188ZM165.059 125.188H164.113V126.881H165.059V125.188ZM163.907 125.188H162.961V126.881H163.907V125.188ZM162.725 125.188H161.779V126.881H162.725V125.188ZM168.037 162.976H168.578V155.262H168.037V162.976ZM158.26 162.976H158.801V155.262H158.26V162.976ZM159.24 162.976H159.781V155.262H159.24V162.976ZM160.22 162.976H160.761V155.262H160.22V162.976ZM161.203 162.976H161.745V155.262H161.203V162.976ZM162.183 162.976H162.725V155.262H162.183V162.976ZM163.129 162.976H163.705V155.262H163.129V162.976ZM164.109 162.976H164.651V155.262H164.109V162.976ZM165.093 162.976H165.634V155.262H165.093V162.976ZM166.073 162.976H166.614V155.262H166.073V162.976ZM167.057 162.976H167.598V155.262H167.057V162.976ZM168.037 154.858H168.578V147.754H168.037V154.858ZM158.26 154.858H158.801V147.754H158.26V154.858ZM159.24 154.858H159.781V147.754H159.24V154.858ZM160.22 154.858H160.761V147.754H160.22V154.858ZM161.203 154.858H161.745V147.754H161.203V154.858ZM162.183 154.858H162.725V147.754H162.183V154.858ZM163.129 154.858H163.705V147.754H163.129V154.858ZM164.109 154.858H164.651V147.754H164.109V154.858ZM165.093 154.858H165.634V147.754H165.093V154.858ZM166.073 154.858H166.614V147.754H166.073V154.858ZM167.057 154.858H167.598V147.754H167.057V154.858ZM168.982 147.449H157.852V163.281H168.982V147.449ZM159.274 145.756H158.633V146.401H159.274V145.756ZM168.17 145.756H167.529V146.401H168.17V145.756ZM167.358 145.756H166.713V146.401H167.358V145.756ZM166.546 145.756H165.905V146.401H166.546V145.756ZM165.733 145.756H165.093V146.401H165.733V145.756ZM164.925 145.756H164.281V146.401H164.925V145.756ZM164.109 145.756H163.468V146.401H164.109V145.756ZM163.301 145.756H162.656V146.401H163.301V145.756ZM162.488 145.756H161.844V146.401H162.488V145.756ZM161.676 145.756H161.066V146.401H161.676V145.756ZM160.898 145.756H160.254V146.401H160.898V145.756ZM160.086 145.756H159.442V146.401H160.086V145.756ZM163.434 141.02C163.366 141.02 163.301 140.986 163.232 140.986L162.996 141.222C162.961 141.356 162.961 141.459 162.893 141.527C162.858 141.562 162.794 141.562 162.725 141.527C162.656 141.428 162.656 141.428 162.557 141.325C162.488 141.291 162.488 141.226 162.557 141.157C162.626 141.089 162.725 141.055 162.828 141.055L163.099 140.818C163.03 140.784 163.03 140.681 163.03 140.616C163.03 140.582 163.03 140.547 163.03 140.513L160.593 137.909C160.593 137.909 160.593 137.874 160.593 137.84H160.662C160.662 137.806 160.696 137.806 160.696 137.84L163.266 140.242C163.301 140.208 163.369 140.208 163.438 140.208C163.507 140.208 163.606 140.242 163.674 140.277L164.079 139.907C164.044 139.907 164.01 139.872 164.01 139.838C163.941 139.804 163.941 139.701 164.01 139.67C164.079 139.602 164.246 139.567 164.414 139.567L164.483 139.499V139.327H164.719V139.529H164.586L164.483 139.632C164.483 139.8 164.483 139.972 164.414 140.04C164.345 140.075 164.246 140.075 164.212 140.04C164.178 140.006 164.178 140.006 164.178 140.006L163.774 140.41C163.808 140.479 163.842 140.544 163.842 140.612C163.842 140.681 163.808 140.715 163.808 140.746C163.907 140.913 164.113 141.051 164.315 141.119C164.315 141.119 164.349 141.119 164.349 141.154C164.349 141.188 164.349 141.222 164.315 141.222C164.246 141.222 164.246 141.257 164.246 141.291C164.212 141.291 164.212 141.325 164.212 141.36C164.212 141.394 164.178 141.428 164.178 141.428C164.109 141.428 164.075 141.428 164.075 141.463C164.04 141.463 164.006 141.497 164.006 141.531H163.972C163.937 141.565 163.937 141.531 163.903 141.531C163.838 141.295 163.701 141.161 163.499 141.024C163.503 141.02 163.468 141.02 163.434 141.02ZM163.335 137.097C163.266 137.097 163.163 137.097 163.099 137.097L163.064 136.658H163.03C163.129 136.658 163.232 136.658 163.335 136.658V137.097V137.097ZM162.893 137.131C162.794 137.165 162.691 137.165 162.588 137.199L162.488 136.761C162.588 136.727 162.725 136.692 162.858 136.692L162.893 137.131ZM162.42 137.23C162.351 137.264 162.286 137.299 162.183 137.299L162.012 136.894C162.115 136.86 162.214 136.826 162.317 136.795L162.42 137.23ZM162.05 137.367C161.947 137.436 161.844 137.47 161.745 137.501L161.509 137.127C161.611 137.058 161.745 136.994 161.878 136.959L162.05 137.367ZM161.573 137.604C161.505 137.668 161.44 137.703 161.371 137.737L161.101 137.363C161.203 137.329 161.268 137.26 161.371 137.192L161.573 137.604ZM161.238 137.84C161.169 137.909 161.135 137.943 161.066 137.977L161.135 138.046C161.169 138.012 161.238 137.947 161.268 137.913H161.303L161.337 137.878C161.436 137.813 161.505 137.745 161.608 137.676H161.642L162.351 138.927C162.283 138.961 162.218 138.995 162.183 139.03L162.252 139.098C162.557 138.828 162.961 138.694 163.438 138.694C163.911 138.694 164.384 138.896 164.723 139.201H164.86C164.757 139.102 164.658 138.999 164.521 138.931L165.2 137.68H165.234C165.371 137.783 165.47 137.848 165.608 137.951L165.642 137.985C165.711 138.054 165.775 138.118 165.878 138.187C165.947 138.29 166.046 138.389 166.149 138.492V138.526L166.183 138.561C166.252 138.664 166.317 138.732 166.351 138.831L165.135 139.541C165.066 139.442 164.967 139.304 164.898 139.201V139.369C165.169 139.674 165.371 140.147 165.371 140.62C165.371 141.161 165.135 141.634 164.795 142.008C164.422 142.347 163.949 142.584 163.442 142.584C162.9 142.584 162.427 142.347 162.054 142.008C161.68 141.634 161.478 141.165 161.478 140.62C161.478 140.181 161.611 139.773 161.882 139.468L161.814 139.4C161.779 139.434 161.745 139.503 161.714 139.533L160.494 138.824C160.563 138.69 160.662 138.553 160.765 138.45V138.416C160.799 138.416 160.799 138.382 160.834 138.351L160.765 138.282C160.731 138.317 160.731 138.351 160.696 138.385L160.323 138.08C160.391 138.046 160.426 138.012 160.46 137.947V137.913C160.46 137.913 160.46 137.878 160.46 137.844V137.775L160.563 137.741C160.597 137.672 160.666 137.672 160.734 137.672C160.803 137.607 160.868 137.573 160.971 137.505L161.238 137.84ZM160.658 138.45H160.624L160.319 138.179L160.658 138.416V138.45ZM160.593 138.519C160.525 138.587 160.46 138.69 160.426 138.79L160.224 138.656L160.021 138.553C160.09 138.454 160.155 138.317 160.224 138.248H160.258L160.593 138.519ZM160.323 138.923C160.288 138.992 160.254 139.056 160.224 139.159L159.785 138.957C159.819 138.889 159.888 138.79 159.918 138.721L160.323 138.923ZM160.121 139.327C160.086 139.43 160.052 139.529 160.021 139.632L159.617 139.499H159.583C159.617 139.362 159.686 139.262 159.716 139.129L160.121 139.327ZM160.018 139.701L159.613 139.602L160.018 139.701ZM159.983 139.804C159.949 139.872 159.949 139.941 159.915 140.04L159.476 139.972C159.51 139.872 159.51 139.77 159.545 139.667V139.701L159.983 139.804ZM159.915 140.109L159.51 140.075V140.04L159.915 140.109ZM159.915 140.208C159.88 140.307 159.88 140.41 159.88 140.513H159.442C159.442 140.38 159.442 140.277 159.476 140.143L159.915 140.208ZM159.884 140.715C159.884 140.784 159.884 140.883 159.918 140.952L159.446 140.986C159.446 140.883 159.446 140.818 159.446 140.715H159.884ZM159.915 141.123C159.949 141.226 159.949 141.36 159.983 141.463L159.545 141.565C159.51 141.432 159.476 141.329 159.476 141.196L159.915 141.123ZM160.018 141.527L159.613 141.626L160.018 141.527ZM160.018 141.63C160.052 141.699 160.086 141.768 160.117 141.832L159.678 142V142.034C159.644 141.932 159.61 141.832 159.575 141.729H159.61L160.018 141.63ZM160.155 141.935L159.781 142.103V142.069L160.155 141.935ZM160.185 142C160.22 142.103 160.254 142.202 160.319 142.305L159.915 142.542C159.846 142.439 159.812 142.305 159.747 142.202L159.781 142.168L160.185 142ZM160.422 142.477C160.456 142.545 160.49 142.61 160.555 142.645L160.151 142.915C160.117 142.847 160.048 142.778 160.018 142.679L160.422 142.477ZM160.658 142.778C160.727 142.881 160.795 142.95 160.864 143.049L160.559 143.388H160.525C160.456 143.289 160.357 143.186 160.288 143.083L160.658 142.778ZM161.001 143.186C161.066 143.22 161.101 143.289 161.169 143.32L160.898 143.693H160.864C160.795 143.625 160.731 143.556 160.658 143.491L161.001 143.186ZM161.303 143.457C161.406 143.525 161.47 143.56 161.573 143.625L161.371 144.033H161.337C161.234 143.964 161.135 143.899 161.032 143.796L161.303 143.457ZM161.741 143.728C161.81 143.762 161.875 143.796 161.943 143.83L161.775 144.235C161.672 144.2 161.573 144.166 161.505 144.101L161.741 143.728ZM162.115 143.895C162.218 143.93 162.317 143.964 162.42 143.998L162.321 144.437C162.183 144.402 162.05 144.368 161.947 144.334L162.115 143.895ZM162.488 144.033L162.42 144.402H162.386L162.488 144.033ZM162.588 144.067C162.656 144.067 162.755 144.101 162.824 144.101L162.755 144.54C162.652 144.54 162.553 144.505 162.485 144.505L162.588 144.067ZM162.893 144.132H162.927L162.858 144.502L162.893 144.132ZM162.996 144.132C163.099 144.132 163.232 144.166 163.335 144.166V144.605C163.198 144.605 163.064 144.605 162.927 144.57L162.996 144.132ZM163.503 144.166C163.571 144.166 163.671 144.166 163.739 144.132L163.808 144.57V144.605C163.705 144.605 163.606 144.605 163.503 144.605V144.166ZM163.941 144.132C164.044 144.097 164.143 144.097 164.246 144.063L164.349 144.502C164.246 144.536 164.113 144.536 163.976 144.57L163.941 144.132ZM164.349 144.033L164.448 144.402H164.414L164.349 144.033ZM164.414 143.998C164.483 143.998 164.551 143.964 164.651 143.93L164.818 144.338V144.372C164.715 144.406 164.651 144.441 164.548 144.441L164.414 143.998ZM164.719 143.895H164.753L164.887 144.269L164.719 143.895ZM164.822 143.865C164.925 143.83 165.024 143.762 165.093 143.731L165.329 144.105V144.139C165.226 144.174 165.093 144.242 164.99 144.307V144.273L164.822 143.865ZM165.261 143.625C165.329 143.59 165.398 143.556 165.463 143.491L165.733 143.865C165.665 143.93 165.566 143.964 165.497 144.033L165.261 143.625ZM165.531 143.457L165.768 143.762L165.531 143.457ZM165.6 143.388C165.703 143.32 165.768 143.255 165.836 143.186L166.176 143.491C166.073 143.59 165.974 143.693 165.871 143.762L165.6 143.388ZM165.974 143.049C166.038 142.98 166.073 142.915 166.107 142.881L166.481 143.152C166.447 143.22 166.378 143.289 166.313 143.354L165.974 143.049ZM166.241 142.713C166.309 142.645 166.378 142.545 166.408 142.442L166.813 142.679C166.744 142.812 166.679 142.915 166.61 143.018H166.576L166.241 142.713ZM166.515 142.305C166.549 142.237 166.584 142.168 166.614 142.103L167.057 142.271C166.988 142.37 166.954 142.442 166.919 142.542H166.885L166.515 142.305ZM166.683 141.935C166.717 141.832 166.782 141.733 166.782 141.63L167.224 141.733H167.259C167.19 141.867 167.156 142.004 167.125 142.103L166.683 141.935ZM166.851 141.459C166.851 141.39 166.885 141.291 166.885 141.222L167.358 141.291C167.324 141.36 167.324 141.459 167.289 141.562L166.851 141.459ZM166.919 141.123L167.327 141.192H167.293L166.919 141.123ZM166.919 141.02C166.954 140.921 166.954 140.818 166.954 140.715H167.396C167.396 140.849 167.396 140.952 167.362 141.085L166.919 141.02ZM166.954 140.513C166.954 140.448 166.954 140.38 166.919 140.311L167.392 140.242C167.392 140.311 167.392 140.41 167.392 140.513H166.954ZM166.919 140.208V140.174L167.327 140.139V140.174L166.919 140.208ZM166.919 140.109C166.885 140.006 166.885 139.907 166.851 139.804L167.293 139.701V139.667C167.327 139.8 167.362 139.937 167.362 140.075L166.919 140.109ZM166.816 139.632C166.782 139.529 166.748 139.464 166.713 139.396L167.156 139.228C167.19 139.331 167.224 139.396 167.224 139.499L166.816 139.632ZM166.683 139.297L167.057 139.129V139.163L166.683 139.297ZM166.649 139.228C166.614 139.129 166.58 139.026 166.515 138.923L166.889 138.721H166.923C166.992 138.824 167.026 138.957 167.095 139.06L166.649 139.228ZM166.412 138.79C166.378 138.721 166.344 138.656 166.309 138.587L166.649 138.317C166.717 138.385 166.782 138.484 166.816 138.553L166.412 138.79ZM166.176 138.416C166.107 138.351 166.038 138.282 165.974 138.179L166.309 137.874C166.378 137.977 166.477 138.076 166.546 138.145V138.179L166.176 138.416ZM165.836 138.076C165.802 138.008 165.733 137.943 165.665 137.909L165.936 137.539C166.004 137.607 166.103 137.672 166.172 137.741L165.836 138.076ZM165.6 137.84L165.871 137.535L165.634 137.84H165.6ZM165.531 137.806C165.428 137.737 165.364 137.668 165.261 137.604L165.497 137.23C165.6 137.299 165.699 137.367 165.802 137.436L165.531 137.806ZM165.093 137.535C165.024 137.466 164.959 137.432 164.891 137.402L165.059 136.994C165.161 137.028 165.226 137.062 165.329 137.127L165.093 137.535ZM164.719 137.333C164.62 137.299 164.517 137.264 164.414 137.23L164.551 136.791C164.654 136.826 164.788 136.891 164.891 136.925L164.719 137.333ZM164.246 137.199C164.178 137.165 164.079 137.165 164.01 137.131L164.079 136.692C164.182 136.727 164.281 136.727 164.349 136.761L164.246 137.199ZM163.941 137.131H163.907L163.976 136.727L163.941 137.131ZM163.842 137.131C163.739 137.097 163.606 137.097 163.503 137.097V136.658C163.636 136.658 163.774 136.658 163.907 136.658L163.842 137.131ZM161.775 137.604C161.878 137.535 161.943 137.501 162.046 137.436H162.08L162.183 137.402C162.286 137.367 162.351 137.333 162.454 137.299H162.488L162.557 137.264H162.626C162.729 137.23 162.828 137.23 162.931 137.196H162.965H163.068H163.102V137.161C163.171 137.161 163.27 137.161 163.339 137.161V138.584C163.034 138.618 162.729 138.683 162.492 138.82L161.775 137.604ZM163.503 137.165C163.606 137.165 163.705 137.165 163.808 137.199H163.842H163.941H163.976C164.079 137.234 164.143 137.234 164.212 137.268H164.246L164.349 137.302H164.384C164.483 137.337 164.586 137.371 164.689 137.405V137.44H164.723C164.757 137.44 164.792 137.474 164.826 137.474L164.86 137.508C164.929 137.508 164.994 137.577 165.062 137.611L164.353 138.828C164.082 138.694 163.812 138.626 163.507 138.591V137.165H163.503ZM166.447 138.992C166.515 139.095 166.549 139.194 166.58 139.297L166.614 139.331C166.614 139.365 166.614 139.4 166.649 139.4V139.434C166.683 139.533 166.717 139.67 166.752 139.804C166.82 140.04 166.851 140.277 166.851 140.547H165.428C165.428 140.242 165.329 139.937 165.226 139.701L166.447 138.992ZM166.851 140.715C166.851 140.818 166.851 140.917 166.816 141.02C166.816 141.157 166.782 141.291 166.748 141.428C166.679 141.733 166.576 142 166.443 142.271L165.192 141.562C165.329 141.291 165.394 141.02 165.428 140.715H166.851V140.715ZM166.344 142.408C166.309 142.511 166.241 142.61 166.176 142.713L166.107 142.782L166.073 142.816C166.004 142.885 165.974 142.953 165.939 142.984L165.871 143.018L165.836 143.087L165.768 143.121H165.802C165.699 143.19 165.63 143.255 165.566 143.323H165.531V143.358L165.497 143.392C165.394 143.461 165.329 143.495 165.226 143.56L164.517 142.309C164.62 142.24 164.753 142.141 164.856 142.038C164.959 141.935 165.059 141.836 165.127 141.699L166.344 142.408ZM165.059 143.659C164.99 143.693 164.891 143.758 164.788 143.792V143.758L164.719 143.792L164.685 143.827L164.616 143.861C164.548 143.861 164.479 143.895 164.41 143.926H164.376C164.342 143.926 164.273 143.96 164.239 143.96H164.204C164.067 143.994 163.968 144.029 163.835 144.029H163.766C163.663 144.063 163.598 144.063 163.495 144.063V142.641C163.8 142.606 164.071 142.542 164.342 142.404L165.059 143.659ZM163.335 144.067C163.232 144.067 163.129 144.067 163.03 144.033C162.996 144.033 162.961 144.033 162.927 144.033H162.893H162.858C162.755 143.998 162.691 143.998 162.622 143.964C162.454 143.93 162.286 143.865 162.115 143.796H162.08C161.981 143.762 161.878 143.697 161.775 143.663L162.485 142.412C162.755 142.549 163.026 142.614 163.331 142.648V144.067H163.335ZM161.608 143.556C161.539 143.522 161.44 143.453 161.337 143.388H161.371L161.337 143.354L161.234 143.32V143.285H161.2C161.165 143.217 161.097 143.182 161.032 143.117H161.066L161.032 143.083L160.963 143.014L160.895 142.98C160.826 142.912 160.761 142.847 160.693 142.744H160.727H160.693L160.624 142.641L160.59 142.606C160.555 142.538 160.521 142.473 160.487 142.404H160.452L161.703 141.695C161.802 141.829 161.871 141.932 162.008 142.034C162.111 142.137 162.21 142.237 162.347 142.34L161.608 143.556ZM160.391 142.271C160.323 142.168 160.288 142.069 160.254 141.932H160.22C160.185 141.829 160.151 141.695 160.117 141.592C160.082 141.524 160.082 141.489 160.082 141.424C160.014 141.188 159.979 140.952 159.979 140.711H161.402C161.402 141.016 161.505 141.287 161.638 141.558L160.391 142.271ZM159.983 140.547C159.983 140.448 159.983 140.311 160.018 140.212C160.018 140.143 160.018 140.109 160.018 140.044C160.052 139.975 160.052 139.876 160.086 139.808C160.086 139.739 160.086 139.705 160.121 139.674V139.64C160.155 139.537 160.189 139.438 160.224 139.369L160.258 139.3V139.266C160.258 139.232 160.292 139.232 160.292 139.198C160.326 139.133 160.361 139.064 160.395 138.995L161.646 139.705C161.512 139.975 161.409 140.246 161.409 140.551H159.983V140.547ZM168.002 136.014H163.434C165.939 136.014 168.002 138.076 168.002 140.616V136.014ZM164.414 136.791H164.448L164.349 137.196L164.414 136.791ZM166.176 137.84H166.21L165.939 138.145L165.905 138.111L166.176 137.84ZM167.224 139.598L166.816 139.697L167.224 139.598ZM167.224 141.63L166.816 141.531L167.224 141.63ZM166.21 143.388L166.176 143.422L165.905 143.117H165.939L166.21 143.388ZM160.658 143.422L160.624 143.388L160.895 143.117H160.929L160.658 143.422ZM162.386 136.791H162.42L162.488 137.196L162.386 136.791ZM164.99 136.994L164.822 137.367L164.99 136.994ZM166.58 138.248L166.241 138.519V138.484L166.58 138.248ZM167.057 142.172L166.649 142.004L167.057 142.172ZM166.515 143.049L166.176 142.812L166.515 143.049ZM163.876 144.54L163.842 144.136L163.876 144.54ZM161.878 144.269L161.844 144.235L162.012 143.865L161.878 144.269ZM160.967 143.728V143.693L161.238 143.388L160.967 143.728ZM160.254 142.984L160.593 142.748L160.254 142.984ZM159.51 141.089L159.915 141.055L159.51 141.089ZM159.781 139.06L160.155 139.228L159.781 139.06ZM161.066 137.47V137.436L161.303 137.775V137.81L161.066 137.47ZM161.947 136.959L162.119 137.333L162.084 137.367L161.947 136.959ZM162.961 136.723L162.996 137.127L162.961 136.723ZM163.434 136.014H158.832V140.616C158.836 138.076 160.898 136.014 163.434 136.014ZM158.836 140.616V145.218H163.438C160.898 145.215 158.836 143.152 158.836 140.616ZM163.434 145.215H168.002V140.612C168.002 143.152 165.939 145.215 163.434 145.215ZM163.434 144.978C161.032 144.978 159.068 143.014 159.068 140.612C159.068 138.244 161.032 136.284 163.434 136.284C165.802 136.284 167.766 138.244 167.766 140.612C167.766 143.018 165.802 144.978 163.434 144.978ZM167.293 144.707C167.091 144.707 166.954 144.574 166.954 144.338C166.954 144.17 167.091 144.033 167.293 144.033C167.461 144.033 167.632 144.166 167.632 144.338C167.629 144.574 167.461 144.707 167.293 144.707ZM167.293 137.131C167.091 137.131 166.954 136.963 166.954 136.791C166.954 136.589 167.091 136.452 167.293 136.452C167.461 136.452 167.632 136.586 167.632 136.791C167.629 136.959 167.461 137.131 167.293 137.131ZM159.613 137.131C159.411 137.131 159.274 136.963 159.274 136.791C159.274 136.589 159.411 136.452 159.613 136.452C159.815 136.452 159.953 136.586 159.953 136.791C159.949 136.959 159.815 137.131 159.613 137.131ZM159.613 144.707C159.411 144.707 159.274 144.574 159.274 144.338C159.274 144.17 159.411 144.033 159.613 144.033C159.815 144.033 159.953 144.166 159.953 144.338C159.949 144.574 159.815 144.707 159.613 144.707ZM168.136 135.876V145.348H158.698V135.876H168.136ZM168.17 134.866H167.529V135.541H168.17V134.866ZM159.274 134.866H158.633V135.541H159.274V134.866ZM160.086 134.866H159.442V135.541H160.086V134.866ZM160.898 134.866H160.254V135.541H160.898V134.866ZM161.676 134.866H161.066V135.541H161.676V134.866ZM162.488 134.866H161.844V135.541H162.488V134.866ZM163.301 134.866H162.656V135.541H163.301V134.866ZM164.109 134.866H163.468V135.541H164.109V134.866ZM164.925 134.866H164.281V135.541H164.925V134.866ZM165.733 134.866H165.093V135.541H165.733V134.866ZM166.546 134.866H165.905V135.541H166.546V134.866ZM167.358 134.866H166.713V135.541H167.358V134.866ZM158.26 146.332H158.397V134.862H158.26V146.332ZM157.581 146.332H157.749V134.862H157.581V146.332ZM157.92 146.332H158.088V134.862H157.92V146.332ZM168.441 146.332H168.643V134.862H168.441V146.332ZM169.119 146.332H169.287V134.862H169.119V146.332ZM168.78 146.332H168.948V134.862H168.78V146.332Z" fill="#4769B8"/>
<path fill-rule="evenodd" clip-rule="evenodd" d="M294.155 145.318V144.845L292.767 144.17V146.503L294.155 145.318ZM263.608 132.73H273.725V135.674H263.608V132.73ZM273.721 136.151V140.65H263.605V136.151H273.721ZM273.721 141.36V149.443H263.605V141.36H273.721ZM266.178 133.646H267.902V134.015H266.178V133.646ZM272.1 137.604V139.667H270.476V137.604C270.476 137.23 270.884 136.925 271.288 136.925C271.761 136.929 272.1 137.23 272.1 137.604ZM269.526 137.604V139.667H267.902V137.604C267.902 137.23 268.241 136.925 268.714 136.925C269.153 136.929 269.526 137.23 269.526 137.604ZM266.922 137.604V139.667H265.298V137.604C265.298 137.23 265.637 136.925 266.11 136.925C266.548 136.929 266.922 137.23 266.922 137.604ZM269.458 143.625H271.181V143.964H269.458V143.625ZM267.326 143.693H269.05V144.033H267.326V143.693ZM268.546 144.132H270.27V144.502H268.546V144.132ZM269.561 144.776H271.284V145.15H269.561V144.776ZM267.532 144.776H269.256V145.15H267.532V144.776ZM266.213 148.227H267.902V148.597H266.213V148.227ZM265.366 147.788H267.094V148.162H265.366V147.788ZM264.52 147.312H266.243V147.651H264.52V147.312ZM271.082 147.213H272.806V147.586H271.082V147.213ZM270.102 133.238H271.826V133.611H270.102V133.238ZM267.395 134.492H269.118V134.866H267.395V134.492ZM250.377 159.052H267.498V172.448H250.377V159.052ZM267.498 173.024V187.365H250.377V173.024H267.498ZM262.964 183.613H265.873V184.223H262.964V183.613ZM260.222 177.489H263.132V178.099H260.222V177.489ZM256.672 177.626H259.582V178.236H256.672V177.626ZM258.701 178.404H261.61V179.01H258.701V178.404ZM260.394 179.487H263.303V180.097H260.394V179.487ZM256.977 179.487H259.853V180.097H256.977V179.487ZM254.674 185.34H257.584V185.95H254.674V185.34ZM253.29 184.562H256.2V185.172H253.29V184.562ZM251.902 183.746H254.812V184.39H251.902V183.746ZM255.895 167.342V170.827H253.153V167.342C253.153 166.698 253.763 166.156 254.541 166.156C255.284 166.156 255.895 166.698 255.895 167.342ZM264.756 167.342V170.827H262.015V167.342C262.015 166.698 262.59 166.156 263.368 166.156C264.116 166.156 264.756 166.698 264.756 167.342ZM260.325 167.342V170.827H257.584V167.342C257.584 166.698 258.194 166.156 258.937 166.156C259.715 166.156 260.325 166.698 260.325 167.342ZM254.64 160.642H257.549V161.249H254.64V160.642ZM261.34 159.929H264.249V160.539H261.34V159.929ZM256.703 162.03H259.612V162.675H256.703V162.03ZM250.377 163.655H267.498V164.265H250.377V163.655ZM268.714 125.764L265.332 128.605H272.302L268.714 125.764ZM271.624 128.708V132.498H266.041V128.708H271.624ZM268.207 130.16H269.355V129.043H268.207V130.16ZM297.774 142.408L293.004 146.435H302.883L297.774 142.408ZM301.801 146.706V152.086H304.813V175.464H290.636V152.086H294.052V146.706H301.801ZM297.065 148.532H298.655V146.942H297.065V148.532ZM294.19 153.401H296.592V153.874H294.19V153.401ZM302.544 158.953V161.794H300.275V158.953C300.275 158.412 300.748 157.969 301.393 157.969C302.003 157.969 302.544 158.408 302.544 158.953ZM298.891 158.953V161.794H296.622V158.953C296.622 158.412 297.129 157.969 297.74 157.969C298.35 157.969 298.891 158.408 298.891 158.953ZM295.238 158.953V161.794H292.969V158.953C292.969 158.412 293.477 157.969 294.087 157.969C294.731 157.969 295.238 158.408 295.238 158.953ZM298.792 167.308H301.194V167.815H298.792V167.308ZM295.848 167.407H298.251V167.914H295.848V167.407ZM297.537 168.051H299.974V168.593H297.537V168.051ZM298.96 168.966H301.362V169.474H298.96V168.966ZM296.085 168.966H298.521V169.474H296.085V168.966ZM294.224 173.801H296.626V174.309H294.224V173.801ZM293.072 173.161H295.475V173.668H293.072V173.161ZM291.921 172.516H294.323V173.024H291.921V172.516ZM301.091 172.379H303.494V172.852H301.091V172.379ZM299.703 152.829H302.106V153.302H299.703V152.829ZM295.913 154.553H298.315V155.06H295.913V154.553ZM290.636 155.872H304.813V156.547H290.636V155.872ZM290.636 163.178H304.813V164.6H290.636V163.178ZM258.972 147.346L253.187 152.185H265.164L258.972 147.346ZM263.875 152.456V158.58H254.472V152.456H263.875ZM258.125 154.755H260.055V152.826H258.125V154.755ZM267.936 168.49L268.409 168.253V171.872L269.187 171.533V167.914L270.811 167.136V170.755L271.555 170.385V166.766L273.179 165.988V169.607L273.957 169.233V165.615L275.582 164.837V168.455L276.325 168.086V164.467L277.95 163.689V167.308L278.727 166.968V163.315L280.352 162.538V166.156L281.095 165.817V162.198L282.72 161.386V165.005L283.498 164.665V161.047L285.088 160.269V163.887L285.866 163.514V159.895L287.49 159.117V162.736L288.234 162.362V158.743L289.858 157.966V161.588L290.197 161.455V173.634L267.936 184.326V168.49V168.49ZM292.767 146.5V147.243L292.127 146.938V143.827L290.704 143.148V146.294L290.064 145.954V142.843L288.676 142.164V145.31L287.997 144.971V141.859L286.643 141.184V144.33L285.969 143.991V140.879L284.581 140.238V143.316L283.94 143.011V139.899L282.518 139.22V142.332L281.873 142.027V138.915L280.485 138.237V141.348L279.845 141.043V137.932L278.422 137.253V140.364L277.778 140.059V136.948L276.39 136.273V139.384L275.715 139.079V135.968L274.361 135.293V138.404L274.194 138.34V148.826L290.197 156.505V151.636H293.782V146.5H292.767Z" fill="#4769B8"/>
<path fill-rule="evenodd" clip-rule="evenodd" d="M109.474 132.056L108.933 137.131L90.9693 135.171L91.5107 130.096L109.474 132.056ZM95.1637 178.37C104.536 178.37 112.62 182.091 115.903 187.369H74.3594C77.7073 182.091 85.7606 178.37 95.1637 178.37ZM87.1791 164.669L106.26 166.766L106.161 167.918L87.0456 165.821L87.1791 164.669ZM94.5536 122.077L108.288 123.564L108.391 122.55L94.6566 121.059L94.5536 122.077ZM91.1371 128.368L110.252 130.431L110.115 131.617L91.0341 129.52L91.1371 128.368ZM90.3592 135.609L109.44 137.707L109.337 138.893L90.2219 136.795L90.3592 135.609ZM89.5813 142.881L108.662 144.978L108.525 146.13L89.444 144.067L89.5813 142.881ZM88.7691 150.122L107.884 152.219L107.716 153.405L88.6357 151.308L88.7691 150.122ZM87.9912 157.394L107.072 159.491L106.935 160.677L87.854 158.58L87.9912 157.394ZM106.496 129.688L107.141 123.869L95.606 122.618L94.9616 128.437L106.496 129.688ZM98.6489 125.493L98.4468 127.556L96.4525 127.354L96.6546 125.291C96.7233 124.715 97.2304 124.277 97.7719 124.342C98.3095 124.41 98.7175 124.917 98.6489 125.493ZM105.516 126.271L105.28 128.334L103.286 128.098L103.522 126.035C103.591 125.459 104.098 125.055 104.639 125.12C105.177 125.154 105.585 125.661 105.516 126.271ZM102.1 125.897L101.863 127.96L99.8691 127.724L100.105 125.661C100.14 125.085 100.647 124.647 101.223 124.75C101.76 124.784 102.134 125.291 102.1 125.897ZM93.3715 131.312L93.0017 134.66L91.8158 134.526L92.1895 131.179C92.2238 130.908 92.4945 130.706 92.8339 130.736C93.1694 130.771 93.4059 131.007 93.3715 131.312ZM104.975 162.267L104.567 165.619L103.415 165.481L103.789 162.133C103.823 161.863 104.094 161.661 104.433 161.695C104.738 161.76 104.975 161.996 104.975 162.267ZM103.316 162.065L102.942 165.451L101.76 165.314L102.134 161.966C102.168 161.695 102.439 161.493 102.778 161.527C103.114 161.558 103.35 161.828 103.316 162.065ZM101.661 161.928L101.288 165.245L100.136 165.142L100.475 161.76C100.51 161.489 100.815 161.317 101.15 161.356C101.455 161.386 101.696 161.622 101.661 161.928ZM100.037 161.725L99.6632 165.073L98.4811 164.94L98.8548 161.592C98.8891 161.321 99.1598 161.15 99.4954 161.15C99.8348 161.218 100.071 161.455 100.037 161.725ZM98.3781 161.523L98.0045 164.906L96.8529 164.772L97.1923 161.424C97.2266 161.153 97.5316 160.951 97.8367 160.982C98.176 161.016 98.4125 161.283 98.3781 161.523ZM96.7538 161.386L96.3801 164.7L95.1942 164.597L95.5336 161.214C95.5679 160.944 95.8729 160.776 96.2085 160.81C96.5517 160.845 96.7881 161.081 96.7538 161.386ZM95.0951 161.184L94.7252 164.532L93.5393 164.398L93.913 161.081C93.9473 160.776 94.2524 160.608 94.5536 160.608C94.893 160.677 95.1294 160.913 95.0951 161.184ZM93.4402 161.016L93.1008 164.364L91.8844 164.231L92.2581 160.879C92.2924 160.608 92.5975 160.406 92.933 160.44C93.2343 160.475 93.4745 160.745 93.4402 161.016ZM91.8158 160.845L91.4421 164.192L90.2562 164.059L90.6299 160.707C90.6642 160.437 90.9693 160.234 91.2743 160.269C91.5794 160.303 91.8501 160.54 91.8158 160.845ZM90.1571 160.642L89.8177 163.99L88.6013 163.853L88.975 160.54C89.0093 160.234 89.2801 160.067 89.6194 160.067C89.955 160.135 90.1914 160.372 90.1571 160.642ZM105.753 154.927L105.413 158.275L104.197 158.141L104.571 154.789C104.605 154.519 104.876 154.351 105.215 154.351C105.551 154.416 105.787 154.656 105.753 154.927ZM104.128 154.755L103.724 158.103L102.573 157.969L102.946 154.618C102.981 154.347 103.251 154.145 103.591 154.179C103.892 154.214 104.128 154.484 104.128 154.755ZM102.473 154.587L102.1 157.939L100.914 157.806L101.288 154.423C101.322 154.187 101.593 153.985 101.932 154.019C102.268 154.046 102.508 154.282 102.473 154.587ZM100.849 154.385L100.445 157.733L99.2933 157.634L99.6327 154.282C99.7013 153.977 99.972 153.809 100.308 153.809C100.613 153.878 100.849 154.114 100.849 154.385ZM99.1903 154.214L98.8167 157.565L97.6346 157.428L98.0083 154.08C98.0426 153.809 98.3133 153.607 98.6527 153.638C98.9882 153.672 99.2247 153.943 99.1903 154.214ZM97.5316 154.046L97.158 157.394L96.0064 157.256L96.3458 153.874C96.3801 153.638 96.6851 153.432 96.9902 153.466C97.3295 153.504 97.566 153.741 97.5316 154.046ZM95.9073 153.844L95.5336 157.192L94.3477 157.089L94.7214 153.741C94.7214 153.436 95.0264 153.268 95.3658 153.268C95.7052 153.337 95.9416 153.573 95.9073 153.844ZM94.2524 153.672L93.8787 157.024L92.7271 156.887L93.0665 153.539C93.1008 153.268 93.4059 153.066 93.7071 153.134C94.0465 153.131 94.2867 153.401 94.2524 153.672ZM92.5937 153.504L92.2543 156.856L91.0379 156.719L91.4116 153.337C91.4459 153.1 91.751 152.898 92.0865 152.932C92.3916 152.963 92.6623 153.199 92.5937 153.504ZM90.9693 153.302L90.5956 156.654L89.4097 156.551L89.7834 153.203C89.8177 152.898 90.1228 152.73 90.4278 152.73C90.7329 152.795 91.0036 153.032 90.9693 153.302ZM106.565 147.583L106.191 150.931L105.009 150.828L105.383 147.445C105.417 147.175 105.688 147.003 106.027 147.037C106.328 147.075 106.599 147.312 106.565 147.583ZM104.91 147.415L104.571 150.767L103.354 150.629L103.728 147.281C103.762 147.011 104.067 146.809 104.372 146.843C104.704 146.873 104.941 147.144 104.91 147.415ZM103.286 147.247L102.912 150.595L101.726 150.461L102.1 147.114C102.134 146.843 102.405 146.641 102.74 146.675C103.045 146.706 103.286 146.942 103.286 147.247ZM101.627 147.041L101.253 150.393L100.067 150.29L100.441 146.942C100.475 146.637 100.746 146.469 101.082 146.503C101.425 146.534 101.661 146.77 101.627 147.041ZM100.003 146.873L99.5945 150.221L98.443 150.088L98.7823 146.74C98.851 146.469 99.1217 146.267 99.4573 146.301C99.7661 146.332 100.003 146.603 100.003 146.873ZM98.3438 146.706L97.9701 150.053L96.7881 149.916L97.1618 146.568C97.1961 146.298 97.4668 146.092 97.8062 146.126C98.1417 146.164 98.3782 146.435 98.3438 146.706ZM96.6889 146.534L96.3153 149.848L95.1637 149.748L95.5031 146.401C95.5374 146.095 95.8424 145.928 96.178 145.958C96.483 145.993 96.7194 146.229 96.6889 146.534ZM95.0646 146.332L94.6909 149.68L93.5088 149.546L93.8825 146.198C93.8825 145.928 94.1875 145.722 94.5269 145.79C94.8586 145.825 95.0951 146.061 95.0646 146.332ZM93.4059 146.164L93.0322 149.512L91.8806 149.379L92.22 146.027C92.2543 145.756 92.5593 145.554 92.8644 145.588C93.2038 145.623 93.4402 145.893 93.4059 146.164ZM91.7815 145.993L91.4078 149.31L90.1914 149.211L90.5651 145.859C90.5994 145.554 90.9045 145.386 91.24 145.421C91.5794 145.451 91.8158 145.687 91.7815 145.993ZM107.343 140.277L107.003 143.59L105.818 143.491L106.191 140.109C106.191 139.838 106.496 139.667 106.801 139.701C107.141 139.735 107.411 139.972 107.343 140.277ZM105.718 140.075L105.345 143.422L104.159 143.289L104.533 139.975C104.567 139.67 104.838 139.503 105.177 139.503C105.482 139.567 105.753 139.804 105.718 140.075ZM104.06 139.872L103.72 143.255L102.504 143.121L102.912 139.77C102.912 139.499 103.217 139.297 103.518 139.365C103.858 139.362 104.094 139.632 104.06 139.872ZM102.439 139.735L102.065 143.087L100.883 142.953L101.257 139.567C101.291 139.331 101.562 139.129 101.901 139.163C102.203 139.194 102.439 139.43 102.439 139.735ZM100.78 139.533L100.407 142.885L99.2208 142.751L99.5907 139.434C99.625 139.129 99.8958 138.961 100.235 138.961C100.578 139.026 100.815 139.262 100.78 139.533ZM99.156 139.362L98.748 142.713L97.5965 142.58L97.9358 139.228C98.0045 138.957 98.2752 138.755 98.6107 138.824C98.9196 138.824 99.156 139.095 99.156 139.362ZM97.4973 139.194L97.1236 142.545L95.9378 142.408L96.3114 139.06C96.3458 138.79 96.6165 138.587 96.9559 138.622C97.2952 138.652 97.5316 138.889 97.4973 139.194ZM95.8424 138.992L95.4687 142.34L94.3172 142.202L94.6566 138.889C94.7252 138.584 94.9959 138.412 95.3353 138.412C95.6365 138.485 95.8729 138.721 95.8424 138.992ZM94.218 138.824L93.8444 142.172L92.6585 142.038L93.0322 138.69C93.0665 138.42 93.3372 138.218 93.6766 138.282C94.016 138.279 94.2524 138.549 94.218 138.824ZM92.5593 138.652L92.1857 142L91.0341 141.867L91.3735 138.519C91.4078 138.248 91.7128 138.046 92.0179 138.08C92.3573 138.111 92.5937 138.347 92.5593 138.652ZM108.155 132.936L107.781 136.288L106.599 136.151L106.973 132.769C107.007 132.532 107.312 132.33 107.648 132.364C107.953 132.395 108.189 132.631 108.155 132.936ZM106.496 132.731L106.157 136.082L104.971 135.979L105.345 132.631C105.345 132.326 105.65 132.155 105.955 132.155C106.294 132.223 106.565 132.464 106.496 132.731ZM104.876 132.563L104.502 135.911L103.316 135.777L103.69 132.429C103.724 132.159 103.995 131.956 104.334 132.021C104.67 132.021 104.91 132.292 104.876 132.563ZM103.217 132.395L102.878 135.743L101.661 135.609L102.065 132.258C102.065 131.987 102.37 131.785 102.676 131.819C103.015 131.854 103.286 132.09 103.217 132.395ZM101.593 132.189L101.219 135.537L100.037 135.438L100.411 132.086C100.445 131.781 100.716 131.613 101.055 131.613C101.356 131.686 101.593 131.918 101.593 132.189ZM99.9339 132.021L99.5602 135.369L98.3743 135.236L98.748 131.884C98.7823 131.613 99.0531 131.411 99.3924 131.48C99.7318 131.48 99.9682 131.751 99.9339 132.021ZM98.3095 131.854L97.9358 135.201L96.75 135.068L97.1236 131.716C97.158 131.446 97.4287 131.243 97.768 131.278C98.0731 131.312 98.3095 131.548 98.3095 131.854ZM96.6546 131.651L96.2809 134.999L95.0951 134.9L95.4687 131.548C95.5031 131.243 95.7738 131.076 96.1132 131.11C96.4487 131.144 96.6889 131.381 96.6546 131.651ZM95.0302 131.48L94.6222 134.828L93.4745 134.69L93.8139 131.343C93.8825 131.072 94.1532 130.87 94.4888 130.935C94.7938 130.938 95.0302 131.209 95.0302 131.48ZM108.696 139.327L108.155 144.368L90.1914 142.404L90.7329 137.363L108.696 139.327ZM107.919 146.603L107.343 151.644L89.3792 149.68L89.955 144.639L107.919 146.603ZM107.106 153.878L106.565 158.919L88.6013 156.955L89.1428 151.914L107.106 153.878ZM106.328 161.115L105.753 166.191L87.8235 164.227L88.3649 159.152L106.328 161.115ZM105.516 168.391L104.365 179.083C104.094 179.014 103.823 178.945 103.518 178.846L104.399 171.029C104.468 170.252 103.789 169.577 102.843 169.439C101.898 169.336 101.085 169.878 101.017 170.69L100.205 178.202C99.8996 178.168 99.6289 178.133 99.3238 178.099L100.136 170.587C100.205 169.809 99.5259 169.1 98.6146 168.997C97.6994 168.894 96.8567 169.436 96.7881 170.217L95.9416 177.862C95.6708 177.828 95.4001 177.828 95.1637 177.828H95.0607L95.9073 170.114C95.9759 169.336 95.2972 168.627 94.3858 168.524C93.4402 168.421 92.628 168.967 92.525 169.741L91.6442 177.996C91.3391 178.03 91.0341 178.061 90.7291 178.095L91.6442 169.638C91.7472 168.894 91.0341 168.15 90.1228 168.048C89.2076 167.948 88.3649 168.486 88.2963 169.298L87.2477 178.736C86.9083 178.804 86.5384 178.903 86.1991 179.006L87.5527 166.423L105.516 168.391Z" fill="#4769B8"/>
<path fill-rule="evenodd" clip-rule="evenodd" d="M225.344 186.182L212.387 186.316L214.114 184.219L214.758 183.475L215.166 182.968L215.807 182.224L216.211 181.717L216.821 181.008L225.382 170.724L234.011 180.84C233.942 180.909 233.839 181.008 233.774 181.077L239.223 176.001V175.868V176.001C240.306 176.951 241.389 177.897 242.472 178.808C243.216 177.626 244.501 176.135 246.125 176.306C248.932 176.406 249.34 180.737 249.34 180.737L247.849 180.772L247.883 181.618C248.424 182.16 248.829 182.835 249.069 183.578C249.103 183.612 249.103 183.647 249.137 183.681L249.24 183.815L249.275 183.917C249.343 184.055 249.378 184.188 249.477 184.36L243.486 184.394C245.485 184.394 247.479 184.36 249.477 184.36L249.374 184.192L249.305 184.024L249.271 183.921C249.34 184.059 249.374 184.192 249.473 184.364C249.542 184.566 249.778 185.141 249.812 185.344L252.958 185.481C253.465 185.614 253.736 185.584 254.075 187.239L244.333 187.307C244.367 187.475 239.731 187.239 239.731 187.239L229.851 187.14C229.851 187.14 229.851 186.529 229.782 186.259L225.344 186.182ZM234.716 182.293C234.854 182.327 234.987 182.396 235.155 182.461C234.987 182.396 234.85 182.327 234.716 182.293ZM236.981 182.972C237.115 182.972 237.218 182.972 237.351 183.006C237.218 182.972 237.119 182.972 236.981 182.972ZM239.044 186.049C238.941 185.946 238.808 185.881 238.67 185.813C238.808 185.881 238.945 185.946 239.044 186.049ZM249.126 183.681C249.092 183.647 249.092 183.612 249.057 183.578L249.126 183.681Z" fill="#4769B8"/>
<path fill-rule="evenodd" clip-rule="evenodd" d="M244.05 163.113V164.127H238.872V169.573H241.107L239.551 170.08V187.368H236.134V170.114L234.544 169.573H236.809V164.127H219.589V169.573H221.858L220.302 170.08V187.368H216.852V170.114L215.33 169.573H217.561V164.127H212.386V163.113H210.998V162.37H217.561V159.426H216.005V158.274C213.873 157.969 211.677 157.599 209.477 157.157V154.652C208.665 154.518 207.818 154.347 206.972 154.145V152.112C206.026 151.945 205.046 151.739 204.097 151.54C204.097 150.93 204.097 150.324 204.097 149.714C220.367 152.455 236.439 152.284 252.306 149.714C252.306 150.324 252.306 150.934 252.306 151.54C251.36 151.742 250.411 151.945 249.431 152.112V154.145C248.619 154.347 247.772 154.518 246.929 154.686V157.157C244.798 157.634 242.598 158.038 240.401 158.343V159.426H238.876V162.37H245.408V163.113H244.05V163.113ZM221.149 158.85V159.426H219.593V162.37H226.663V159.121C224.836 159.086 223.01 158.984 221.149 158.85ZM236.813 159.426H235.257V158.884C233.461 159.052 231.604 159.121 229.774 159.155V162.37H236.809V159.426H236.813Z" fill="#4769B8"/>
<path fill-rule="evenodd" clip-rule="evenodd" d="M204.367 38.0739C203.421 38.9547 203.692 38.8518 201.492 38.2073C199.562 37.5973 200.477 37.3952 198.75 38.3751C197.194 39.2903 194.655 40.2016 193.473 40.9108C193.915 41.8908 197.701 45.1053 198.617 46.4246C198.277 46.5924 198.006 46.7296 197.637 46.8974C197.061 47.1682 197.198 47.1682 196.519 46.764C195.032 45.9175 190.262 43.2101 189.313 42.806C188.062 43.3474 184.744 45.0404 183.597 44.9718C183.055 44.9375 182.174 44.804 182.346 44.1253C182.785 42.4666 185.763 41.5553 187.692 40.7087C188.47 40.3694 188.268 40.4037 188.436 39.5572C188.641 38.6459 189.926 32.0149 190.228 31.6755C190.361 31.5725 191.41 31.134 191.616 31.0311C191.719 31.6412 191.783 32.3161 191.818 32.9605L192.157 36.7164C192.157 37.3265 192.26 38.0358 192.359 38.6115C193.24 38.173 194.117 37.7993 195.032 37.3608C199.566 35.195 198.754 36.6516 199.802 34.215C200.413 32.8614 200.413 32.0492 201.732 32.2513C201.492 34.9624 202.235 36.6554 204.367 38.0739ZM165.87 11.855C167.09 12.2286 166.815 12.263 168.508 10.7034C169.995 9.34974 169.084 9.55184 171.078 9.72343C172.836 9.85689 175.543 9.62047 176.931 9.75775C176.966 10.8064 174.903 15.3401 174.632 16.9302C175.006 16.9302 175.307 16.9302 175.715 16.9302C176.359 16.9302 176.222 16.9988 176.695 16.3544C177.675 14.9321 180.79 10.4327 181.5 9.68911C182.887 9.65479 186.575 9.72343 187.589 9.21628C188.062 8.94555 188.805 8.40409 188.367 7.86263C187.25 6.57761 184.173 7.01612 182.075 7.08476C181.229 7.08476 181.435 7.05044 180.889 6.37552C180.314 5.63196 176.321 0.183029 175.917 0.0152524C175.749 -0.0190655 174.598 0.0152524 174.396 0.0152524C174.533 0.62535 174.769 1.23163 175.006 1.84173L176.325 5.39173C176.562 5.9332 176.798 6.64244 176.97 7.1839C175.99 7.14958 175.006 7.1839 173.992 7.1839C168.985 7.1839 170.373 8.16387 168.34 6.40602C167.227 5.42605 166.888 4.713 165.77 5.46037C167.12 7.79781 167.189 9.65861 165.87 11.855ZM165.328 8.40409C165.835 8.33546 166.007 9.11333 165.427 9.21628L164.615 9.31924C164.108 9.42219 163.902 8.61 164.478 8.50705L165.328 8.40409ZM93.4739 62.535C93.2032 63.0764 92.4596 62.6684 92.696 62.1956L92.8981 61.7571C93.1689 61.25 93.9124 61.6542 93.6417 62.1308L93.4739 62.535ZM94.7589 59.862C94.4882 60.3691 93.7446 59.9993 94.0154 59.4883L94.3891 58.7447C94.6255 58.2376 95.369 58.6418 95.1326 59.1146L94.7589 59.862ZM96.2804 56.8839C96.0439 57.3568 95.2661 57.0212 95.5368 56.5103L95.941 55.7667C96.1774 55.2939 96.921 55.6333 96.6845 56.1747L96.2804 56.8839ZM97.9047 53.9745C97.5997 54.4817 96.8905 54.0089 97.1612 53.5665L97.5997 52.823C97.9047 52.3158 98.5797 52.7887 98.3089 53.2272L97.9047 53.9745ZM99.5939 51.0995C99.2889 51.5723 98.5797 51.1338 98.8847 50.661L99.3232 49.9517C99.594 49.4789 100.338 49.9174 100.032 50.3902L99.5939 51.0995ZM101.39 48.2587C101.119 48.6972 100.376 48.293 100.681 47.8202L101.154 47.111C101.424 46.6724 102.168 47.0766 101.828 47.5838L101.39 48.2587ZM103.251 45.5171C102.911 45.9556 102.271 45.4484 102.576 45.0099L103.049 44.335C103.388 43.8965 104.063 44.4036 103.724 44.8422L103.251 45.5171ZM105.211 42.8098C104.871 43.2483 104.231 42.7411 104.566 42.3026L105.073 41.6277C105.413 41.1892 106.053 41.7307 105.714 42.1349L105.211 42.8098ZM107.174 40.2741C106.869 40.4418 106.499 40.1711 106.53 39.8355C106.496 39.6335 106.663 39.3627 106.904 39.3284L107.174 38.989C107.514 38.5848 108.189 39.092 107.819 39.5305L107.75 39.6334L107.884 39.6678C108.425 39.8699 108.086 40.6477 107.579 40.4456L107.174 40.2741ZM109.439 37.6354C109.031 38.0434 108.459 37.4676 108.829 37.0596L109.371 36.4495C109.775 36.011 110.351 36.6173 109.981 36.991L109.439 37.6354ZM111.708 35.1645C111.335 35.5687 110.694 34.9967 111.098 34.5887L111.674 33.9786C112.048 33.5744 112.654 34.1464 112.284 34.5544L111.708 35.1645ZM114.042 32.7965C113.603 33.1702 113.062 32.5258 113.466 32.1864L114.042 31.6107C114.48 31.2027 115.022 31.8471 114.652 32.2208L114.042 32.7965ZM116.478 30.4972C116.07 30.8709 115.498 30.2608 115.903 29.8871L116.547 29.3114C116.951 28.9377 117.527 29.5821 117.088 29.9558L116.478 30.4972ZM118.98 28.3314C118.606 28.6708 118.034 28.0607 118.473 27.6908L119.117 27.1493C119.59 26.7756 120.063 27.4887 119.624 27.7938L118.98 28.3314ZM121.618 26.2342C121.146 26.5736 120.673 25.8948 121.111 25.5898L121.756 25.0826C122.229 24.7433 122.701 25.422 122.263 25.727L121.618 26.2342ZM124.291 24.2704C123.887 24.5755 123.346 23.9311 123.819 23.5955C124.055 23.4277 124.291 23.2562 124.528 23.1227C124.932 22.8176 125.474 23.4621 125.001 23.7976C124.764 23.9692 124.528 24.1027 124.291 24.2704ZM127.067 22.4135C126.595 22.7185 126.187 21.9749 126.629 21.7042L127.338 21.2657C127.811 20.9607 128.253 21.7042 127.777 21.9749L127.067 22.4135ZM129.908 20.6861C129.47 20.9568 128.997 20.2476 129.504 19.9426L130.248 19.5384C130.686 19.2676 131.159 19.9769 130.652 20.2819L129.908 20.6861ZM132.852 19.0617C132.31 19.3325 131.971 18.5546 132.444 18.3182L133.187 17.914C133.695 17.6776 134.068 18.4554 133.595 18.6919L132.852 19.0617ZM135.83 17.5746C135.357 17.811 134.949 17.0675 135.456 16.7967C135.727 16.6938 135.963 16.5603 136.234 16.4574C136.707 16.221 137.081 16.9645 136.573 17.2009C136.337 17.3382 136.066 17.4373 135.83 17.5746ZM138.873 16.1866C138.331 16.3887 138.061 15.6109 138.533 15.4088L139.311 15.0694C139.853 14.8673 140.123 15.6757 139.616 15.8473L138.873 16.1866ZM141.95 14.9359C141.443 15.138 141.138 14.3602 141.645 14.1581L142.457 13.853C142.93 13.6509 143.269 14.4288 142.728 14.6309L141.95 14.9359ZM145.096 13.7844C144.589 13.9522 144.284 13.1743 144.825 13.0065C145.096 12.9036 145.367 12.8044 145.637 12.7358C146.11 12.5337 146.415 13.3116 145.874 13.5137C145.607 13.6166 145.366 13.6814 145.096 13.7844ZM148.276 12.7701C147.7 12.9036 147.532 12.0952 148.039 11.9579L148.852 11.7215C149.393 11.588 149.595 12.3964 149.054 12.5337L148.276 12.7701ZM151.49 11.855C150.949 11.9922 150.747 11.18 151.288 11.0428L152.1 10.8407C152.608 10.7072 152.844 11.5156 152.303 11.6529L151.49 11.855ZM154.739 11.0771C154.232 11.2105 153.961 10.4022 154.537 10.2306L155.384 10.0628C155.959 9.95984 156.062 10.8063 155.551 10.875L154.739 11.0771ZM157.988 10.3678C157.446 10.4708 157.313 9.65861 157.854 9.55565L158.667 9.42219C159.242 9.31924 159.376 10.1314 158.834 10.2344L157.988 10.3678ZM161.301 9.79206C160.76 9.89502 160.592 9.08283 161.168 8.97987L161.98 8.84641C162.522 8.74346 162.689 9.58997 162.114 9.69292L161.301 9.79206ZM48.647 42.539C47.6975 43.4199 47.9721 43.3169 45.7719 42.642C43.8425 42.0662 44.7576 41.8298 43.0303 42.8441C41.4745 43.7249 38.935 44.6706 37.7529 45.3798C38.1915 46.3598 41.9817 49.5742 42.8968 50.8936C42.5575 51.0613 42.2867 51.1643 41.9169 51.3321C41.3411 51.6371 41.4784 51.6371 40.7996 51.2291C39.3125 50.3826 34.5423 47.641 33.5928 47.2711C32.3421 47.8126 29.0247 49.5056 27.877 49.4369C27.3355 49.4026 26.4547 49.2349 26.6263 48.5561C27.0648 46.8974 30.0428 45.9861 31.9723 45.1396C32.7501 44.8002 32.5481 44.8688 32.7158 44.0223C32.9179 43.0767 34.2068 36.48 34.508 36.1406C34.6109 36.0377 35.6901 35.5649 35.896 35.4962C35.9989 36.1063 36.0676 36.7469 36.0981 37.3913L36.4374 41.1816C36.4374 41.7574 36.5404 42.5009 36.6395 43.0424C37.5203 42.6344 38.3974 42.2302 39.3125 41.826C43.8463 39.6601 42.9998 41.1167 44.0827 38.6802C44.6928 37.3265 44.6585 36.5143 46.0121 36.7164C45.7719 39.4275 46.5155 41.1206 48.647 42.539ZM47.667 39.1911C47.1599 39.3589 47.362 40.1368 47.9378 40.0033L48.7156 39.7326C49.1885 39.5953 49.0207 38.7869 48.4449 38.9204L47.667 39.1911ZM135.796 57.3911C136.234 57.7648 136.707 57.086 136.303 56.7505L135.963 56.4798C135.491 56.1061 135.018 56.7848 135.422 57.1242L135.796 57.3911ZM133.458 55.5303C133.897 55.8697 134.404 55.2252 134 54.8859L133.325 54.3444C132.886 54.0051 132.379 54.6838 132.818 55.0193L133.458 55.5303ZM130.819 53.5017C131.224 53.8411 131.765 53.1967 131.327 52.8268L130.652 52.3197C130.213 52.0146 129.672 52.659 130.145 52.9984L130.819 53.5017ZM128.116 51.538C128.589 51.8773 129.031 51.1338 128.589 50.8631L127.88 50.3902C127.407 50.0509 126.964 50.7982 127.407 51.0651L128.116 51.538ZM125.34 49.6772C125.813 49.9822 126.255 49.273 125.813 48.9679L125.104 48.5294C124.631 48.2244 124.158 48.9031 124.631 49.2082L125.34 49.6772ZM122.534 47.885C122.972 48.1557 123.445 47.4808 122.938 47.1758L122.229 46.7373C121.79 46.4665 121.317 47.1415 121.79 47.4465L122.534 47.885ZM119.624 46.1958C120.166 46.4665 120.505 45.723 120.063 45.4523L119.319 45.0481C118.812 44.7773 118.438 45.5209 118.915 45.7916L119.624 46.1958ZM116.715 44.6057C117.222 44.8422 117.561 44.0986 117.088 43.8622L116.345 43.4542C115.838 43.2178 115.464 43.9613 115.971 44.1977L116.715 44.6057ZM113.702 43.1148C114.21 43.3512 114.583 42.6077 114.072 42.3369L113.329 41.9976C112.856 41.7612 112.448 42.4704 112.955 42.7411L113.702 43.1148ZM110.694 41.7307C111.235 41.9328 111.506 41.1549 110.999 40.9528L110.221 40.6134C109.714 40.4113 109.409 41.1892 109.916 41.3913L110.694 41.7307ZM104.467 39.2941C105.043 39.4619 105.211 38.6497 104.738 38.5162L103.926 38.2455C103.35 38.0777 103.182 38.8899 103.655 39.0234L104.467 39.2941ZM101.287 38.276C101.794 38.4438 102.031 37.6316 101.523 37.4638L100.711 37.2274C100.17 37.0901 99.9333 37.9023 100.475 38.0396L101.287 38.276ZM98.0725 37.399C98.5453 37.5324 98.8504 36.7584 98.2746 36.5868L97.4624 36.3847C96.8523 36.2512 96.7532 37.0939 97.2603 37.1969L98.0725 37.399ZM94.8276 36.6211C95.369 36.724 95.5025 35.9119 94.9953 35.8089L94.1488 35.6411C93.6074 35.5382 93.4396 36.3504 93.9772 36.4533L94.8276 36.6211ZM91.5445 36.011C92.0516 36.1139 92.2537 35.3018 91.6779 35.1645C91.4072 35.1302 91.1022 35.0615 90.8314 35.031C90.3243 34.9281 90.1222 35.7403 90.698 35.8775C90.9687 35.908 91.2737 35.9424 91.5445 36.011ZM88.2271 35.5039C88.8029 35.5725 88.8715 34.726 88.33 34.6917L87.5178 34.5887C86.9421 34.5201 86.8734 35.3666 87.4149 35.4009L88.2271 35.5039ZM84.9135 35.1645C85.4549 35.1988 85.5579 34.3866 84.9821 34.318L84.1356 34.2493C83.6285 34.1807 83.495 35.0272 84.1013 35.0959L84.9135 35.1645ZM81.5999 34.9281C82.1757 34.9624 82.1413 34.1159 81.6342 34.1159L80.7877 34.0816C80.2119 34.0472 80.2119 34.8938 80.7534 34.8938L81.5999 34.9281ZM78.2482 34.8594C78.7896 34.8594 78.8239 34.0129 78.2482 34.0129C77.9774 34.0129 77.6724 34.0129 77.4017 34.0129C76.8945 34.0129 76.8259 34.8594 77.4017 34.8594C77.7067 34.8594 77.9774 34.8594 78.2482 34.8594ZM74.9003 34.9281C75.5103 34.8594 75.4074 34.0472 74.8659 34.0816L74.0537 34.1159C73.478 34.1502 73.5466 34.9967 74.0881 34.9624L74.9003 34.9281ZM71.5828 35.0997C72.1243 35.0653 72.0557 34.2188 71.5142 34.2532L70.6677 34.3218C70.1262 34.3561 70.1949 35.2026 70.7363 35.1683L71.5828 35.0997ZM68.2693 35.4009C68.7764 35.3666 68.7421 34.5201 68.1663 34.5887C67.8956 34.623 67.5905 34.6573 67.3198 34.6917C66.8127 34.726 66.847 35.5725 67.4227 35.5039C67.6935 35.4695 67.9642 35.4352 68.2693 35.4009ZM64.9519 35.8432C65.5276 35.7403 65.3255 34.9319 64.8184 35.031L63.9719 35.134C63.4304 35.2713 63.5982 36.0834 64.1053 35.9805L64.9519 35.8432ZM61.6383 36.4152C62.1797 36.3122 62.0463 35.4695 61.5048 35.5687L60.6583 35.7365C60.1511 35.8394 60.2846 36.6516 60.8261 36.5486L61.6383 36.4152ZM58.3895 37.0596C58.8966 36.991 58.7632 36.1445 58.1874 36.2474L57.3752 36.4495C56.7994 36.5868 57.0702 37.3952 57.5773 37.2617L58.3895 37.0596ZM55.1407 37.8718C55.6822 37.704 55.4458 36.8918 54.9043 37.0596L54.0921 37.2617C53.5507 37.3952 53.7871 38.2073 54.3285 38.0739L55.1407 37.8718ZM51.8958 38.7526C52.4372 38.6192 52.2351 37.7727 51.6594 37.9404L50.8815 38.1768C50.3743 38.3103 50.5421 39.1225 51.1179 38.989L51.8958 38.7526ZM203.387 34.726C202.88 34.8938 203.082 35.6716 203.657 35.5382L204.435 35.2674C204.908 35.1302 204.775 34.3218 204.165 34.4896L203.387 34.726ZM291.515 52.9603C291.954 53.2996 292.461 52.6209 292.022 52.3158L291.683 52.0108C291.21 51.6371 290.737 52.3502 291.142 52.6552L291.515 52.9603ZM289.182 51.0995C289.624 51.4388 290.127 50.7601 289.723 50.4245L289.044 49.9174C288.606 49.578 288.095 50.2224 288.537 50.5618L289.182 51.0995ZM286.543 49.0366C286.947 49.3759 287.489 48.7315 287.05 48.3922L286.375 47.885C285.937 47.5456 285.395 48.1901 285.868 48.5599L286.543 49.0366ZM283.836 47.1071C284.309 47.4122 284.751 46.703 284.309 46.3979L283.634 45.9251C283.127 45.62 282.684 46.3331 283.161 46.6343L283.836 47.1071ZM281.064 45.212C281.536 45.5171 281.975 44.8078 281.536 44.5028L280.827 44.0643C280.354 43.7592 279.912 44.4723 280.354 44.7735L281.064 45.212ZM278.253 43.4199C278.696 43.7249 279.168 43.0462 278.696 42.7106L277.952 42.2721C277.548 42.0014 277.041 42.6763 277.548 43.0157L278.253 43.4199ZM275.378 41.7307C275.885 42.0014 276.225 41.2578 275.786 41.0214L275.043 40.5829C274.536 40.3465 274.162 41.0901 274.639 41.3265L275.378 41.7307ZM272.435 40.1368C272.942 40.3732 273.315 39.664 272.804 39.3932L272.061 39.0195C271.554 38.7488 271.214 39.5267 271.687 39.7631L272.435 40.1368ZM269.422 38.6497C269.929 38.8861 270.303 38.1425 269.796 37.9061L269.052 37.5324C268.579 37.296 268.175 38.0396 268.679 38.276L269.422 38.6497ZM266.414 37.2617C266.955 37.4638 267.226 36.6859 266.719 36.4838L265.975 36.1445C265.434 35.9424 265.129 36.7546 265.636 36.9223L266.414 37.2617ZM263.302 36.011C263.809 36.2131 264.145 35.4352 263.607 35.1988L262.829 34.9281C262.322 34.726 262.017 35.5039 262.524 35.706L263.302 36.011ZM260.187 34.8594C260.763 35.0272 260.93 34.1845 260.458 34.0472L259.645 33.7765C259.07 33.6087 258.902 34.4171 259.375 34.5887L260.187 34.8594ZM257.011 33.8108C257.552 33.9786 257.754 33.1664 257.247 33.033L256.435 32.7965C255.893 32.6288 255.657 33.4371 256.198 33.5744L257.011 33.8108ZM253.796 32.9338C254.269 33.0673 254.574 32.2894 253.998 32.1216L253.186 31.9195C252.576 31.7861 252.473 32.6288 252.984 32.7317L253.796 32.9338ZM250.547 32.1903C251.089 32.2932 251.222 31.4467 250.715 31.3438L249.869 31.176C249.327 31.073 249.19 31.8852 249.735 31.9882L250.547 32.1903ZM247.264 31.5458C247.771 31.6488 247.977 30.8366 247.398 30.7337C247.127 30.665 246.856 30.6307 246.551 30.5659C246.078 30.4972 245.842 31.3094 246.418 31.4124C246.723 31.4429 246.993 31.5115 247.264 31.5458ZM243.951 31.0387C244.526 31.1073 244.595 30.2951 244.054 30.2265L243.241 30.1236C242.666 30.0549 242.597 30.9014 243.138 30.9357L243.951 31.0387ZM240.633 30.6993C241.175 30.768 241.274 29.9215 240.702 29.8528L239.855 29.7842C239.348 29.7499 239.211 30.5621 239.821 30.6307L240.633 30.6993ZM237.32 30.4972C237.895 30.4972 237.861 29.6507 237.354 29.6507L236.507 29.6164C235.932 29.6164 235.932 30.4286 236.473 30.4629L237.32 30.4972ZM233.968 30.3943C234.509 30.3943 234.544 29.5821 233.968 29.5478C233.697 29.5478 233.392 29.5478 233.121 29.5478C232.614 29.5478 232.546 30.3943 233.121 30.3943C233.43 30.3943 233.697 30.3943 233.968 30.3943ZM230.62 30.4629C231.23 30.4286 231.127 29.5821 230.586 29.6164L229.773 29.6507C229.198 29.6851 229.266 30.5316 229.808 30.4972L230.62 30.4629ZM227.306 30.6307C227.848 30.5964 227.814 29.7499 227.238 29.8185L226.391 29.8871C225.85 29.9215 225.918 30.7337 226.46 30.6993L227.306 30.6307ZM223.989 30.9701C224.496 30.9014 224.462 30.0549 223.886 30.1236C223.615 30.1579 223.31 30.1922 223.04 30.2265C222.532 30.2608 222.567 31.1073 223.142 31.0387C223.413 31.0044 223.684 30.9701 223.989 30.9701ZM220.675 31.3781C221.251 31.2751 221.045 30.4667 220.542 30.5659L219.695 30.6993C219.154 30.8023 219.322 31.6145 219.829 31.5115L220.675 31.3781ZM217.358 31.95C217.899 31.8471 217.766 31.0387 217.225 31.1378L216.382 31.2713C215.875 31.3743 216.008 32.217 216.55 32.1178L217.358 31.95ZM214.113 32.6288C214.62 32.5258 214.487 31.6831 213.911 31.8166L213.099 31.9844C212.523 32.1521 212.794 32.9338 213.301 32.7965L214.113 32.6288ZM210.864 33.4066C211.406 33.2389 211.169 32.461 210.662 32.5945L209.816 32.7965C209.274 32.9643 209.511 33.7422 210.052 33.6087L210.864 33.4066ZM207.65 34.2875C208.157 34.154 207.955 33.3418 207.413 33.4753L206.601 33.7117C206.094 33.8451 206.262 34.6917 206.838 34.5239L207.65 34.2875Z" fill="#4769B8"/>
<path fill-rule="evenodd" clip-rule="evenodd" d="M71.0768 209.324H89.6847C92.1861 209.324 94.2185 211.357 94.2185 213.858V232.466C94.2185 234.937 92.1899 237 89.6847 237H71.0768C68.5754 237 66.543 234.937 66.543 232.466V213.858C66.543 211.353 68.5754 209.324 71.0768 209.324Z" fill="#4769B8"/>
<path fill-rule="evenodd" clip-rule="evenodd" d="M99.9342 209.324H118.542C121.044 209.324 123.076 211.357 123.076 213.858V232.466C123.076 234.937 121.047 237 118.542 237H99.9342C97.429 237 95.4004 234.937 95.4004 232.466V213.858C95.4004 211.353 97.4328 209.324 99.9342 209.324Z" fill="#4769B8"/>
<path fill-rule="evenodd" clip-rule="evenodd" d="M128.791 209.324H147.399C149.869 209.324 151.932 211.357 151.932 213.858V232.466C151.932 234.937 149.869 237 147.399 237H128.791C126.285 237 124.257 234.937 124.257 232.466V213.858C124.257 211.353 126.285 209.324 128.791 209.324Z" fill="#4769B8"/>
<path fill-rule="evenodd" clip-rule="evenodd" d="M157.649 209.324H176.257C178.728 209.324 180.791 211.357 180.791 213.858V232.466C180.791 234.937 178.728 237 176.257 237H157.649C155.144 237 153.115 234.937 153.115 232.466V213.858C153.115 211.353 155.144 209.324 157.649 209.324Z" fill="#4769B8"/>
<path fill-rule="evenodd" clip-rule="evenodd" d="M186.506 209.324H205.114C207.585 209.324 209.648 211.357 209.648 213.858V232.466C209.648 234.937 207.585 237 205.114 237H186.506C184.001 237 181.973 234.937 181.973 232.466V213.858C181.973 211.353 184.001 209.324 186.506 209.324Z" fill="#4769B8"/>
<path fill-rule="evenodd" clip-rule="evenodd" d="M215.365 209.324H233.969C236.44 209.324 238.503 211.357 238.503 213.858V232.466C238.503 234.937 236.44 237 233.969 237H215.365C212.86 237 210.831 234.937 210.831 232.466V213.858C210.831 211.353 212.86 209.324 215.365 209.324Z" fill="#4769B8"/>
<path d="M84 218.228V219.81H79.926V222.316H83.048V223.87H79.926V228H77.966V218.228H84ZM110.701 226.446H113.921V228H108.741V218.228H110.701V226.446ZM142.953 218.228L139.649 224.598V228H137.689V224.598L134.371 218.228H136.583L138.683 222.694L140.769 218.228H142.953ZM170.903 221.168C170.679 220.757 170.371 220.445 169.979 220.23C169.587 220.015 169.129 219.908 168.607 219.908C168.028 219.908 167.515 220.039 167.067 220.3C166.619 220.561 166.269 220.935 166.017 221.42C165.765 221.905 165.639 222.465 165.639 223.1C165.639 223.753 165.765 224.323 166.017 224.808C166.278 225.293 166.637 225.667 167.095 225.928C167.552 226.189 168.084 226.32 168.691 226.32C169.437 226.32 170.049 226.124 170.525 225.732C171.001 225.331 171.313 224.775 171.463 224.066H168.103V222.568H173.395V224.276C173.264 224.957 172.984 225.587 172.555 226.166C172.125 226.745 171.57 227.211 170.889 227.566C170.217 227.911 169.461 228.084 168.621 228.084C167.678 228.084 166.824 227.874 166.059 227.454C165.303 227.025 164.705 226.432 164.267 225.676C163.837 224.92 163.623 224.061 163.623 223.1C163.623 222.139 163.837 221.28 164.267 220.524C164.705 219.759 165.303 219.166 166.059 218.746C166.824 218.317 167.673 218.102 168.607 218.102C169.708 218.102 170.665 218.373 171.477 218.914C172.289 219.446 172.849 220.197 173.157 221.168H170.903ZM199.631 218.228V228H197.671V223.842H193.485V228H191.525V218.228H193.485V222.246H197.671V218.228H199.631ZM228.225 218.228V219.81H225.621V228H223.661V219.81H221.057V218.228H228.225Z" fill="white"/>
</svg>
