<svg width="19" height="16" viewBox="0 0 19 16" fill="none" xmlns="http://www.w3.org/2000/svg">
<path d="M1.33333 0H8C8.35362 0 8.69276 0.140476 8.94281 0.390525C9.19286 0.640573 9.33333 0.979711 9.33333 1.33333C9.33333 1.68696 9.19286 2.02609 8.94281 2.27614C8.69276 2.52619 8.35362 2.66667 8 2.66667H1.33333C0.979711 2.66667 0.640573 2.52619 0.390525 2.27614C0.140476 2.02609 0 1.68696 0 1.33333C0 0.979711 0.140476 0.640573 0.390525 0.390525C0.640573 0.140476 0.979711 0 1.33333 0ZM10.6667 12.6667H17.3333C17.687 12.6667 18.0261 12.8071 18.2761 13.0572C18.5262 13.3072 18.6667 13.6464 18.6667 14C18.6667 14.3536 18.5262 14.6928 18.2761 14.9428C18.0261 15.1929 17.687 15.3333 17.3333 15.3333H10.6667C10.313 15.3333 9.97391 15.1929 9.72386 14.9428C9.47381 14.6928 9.33333 14.3536 9.33333 14C9.33333 13.6464 9.47381 13.3072 9.72386 13.0572C9.97391 12.8071 10.313 12.6667 10.6667 12.6667ZM1.33333 6.33333H17.3333C17.687 6.33333 18.0261 6.47381 18.2761 6.72386C18.5262 6.97391 18.6667 7.31304 18.6667 7.66667C18.6667 8.02029 18.5262 8.35943 18.2761 8.60948C18.0261 8.85952 17.687 9 17.3333 9H1.33333C0.979711 9 0.640573 8.85952 0.390525 8.60948C0.140476 8.35943 0 8.02029 0 7.66667C0 7.31304 0.140476 6.97391 0.390525 6.72386C0.640573 6.47381 0.979711 6.33333 1.33333 6.33333Z" fill="#121F3E"/>
</svg>
