<svg  viewBox="0 0 26 25" fill="none" xmlns="http://www.w3.org/2000/svg">
<g filter="url(#filter0_d_1_7218)">
<path d="M12.0964 3.90659C12.4576 3.14431 13.5424 3.1443 13.9036 3.90659L15.0608 6.34808C15.2066 6.65565 15.4988 6.86795 15.8364 6.91155L18.5159 7.25762C19.3526 7.36567 19.6877 8.39728 19.0744 8.97645L17.11 10.8314C16.8625 11.0651 16.7509 11.4086 16.8138 11.7432L17.3127 14.3985C17.4684 15.2276 16.5909 15.8652 15.8506 15.4608L13.4793 14.1658C13.1806 14.0026 12.8194 14.0026 12.5207 14.1658L10.1494 15.4608C9.4091 15.8652 8.53155 15.2276 8.68732 14.3985L9.18623 11.7432C9.24908 11.4086 9.13746 11.0651 8.88999 10.8314L6.92558 8.97645C6.31225 8.39728 6.64744 7.36567 7.48406 7.25762L10.1636 6.91155C10.5012 6.86795 10.7934 6.65565 10.9392 6.34808L12.0964 3.90659Z" fill="#FBBC05"/>
<path d="M14.3555 3.69244C13.8135 2.54902 12.1865 2.54902 11.6445 3.69244L10.4874 6.13393C10.4145 6.28772 10.2684 6.39387 10.0996 6.41567L7.42002 6.76174C6.16509 6.92381 5.6623 8.47123 6.5823 9.33998L8.54671 11.195C8.67044 11.3118 8.72625 11.4836 8.69482 11.6508L8.19592 14.3062C7.96227 15.5498 9.27858 16.5061 10.3891 15.8996L12.7603 14.6046C12.9097 14.523 13.0903 14.523 13.2397 14.6046L15.6109 15.8996C16.7214 16.5062 18.0377 15.5498 17.8041 14.3062L17.3052 11.6508C17.2737 11.4836 17.3296 11.3118 17.4533 11.195L19.4177 9.33998C20.3377 8.47123 19.8349 6.92381 18.58 6.76174L15.9004 6.41567C15.7316 6.39387 15.5855 6.28772 15.5126 6.13393L14.3555 3.69244Z" stroke="white"/>
</g>
<defs>
<filter id="filter0_d_1_7218" x="0.609375" y="0.334961" filterUnits="userSpaceOnUse" color-interpolation-filters="sRGB">
<feFlood flood-opacity="0" result="BackgroundImageFix"/>
<feColorMatrix in="SourceAlpha" type="matrix" values="0 0 0 0 0 0 0 0 0 0 0 0 0 0 0 0 0 0 127 0" result="hardAlpha"/>
<feOffset dy="3"/>
<feGaussianBlur stdDeviation="2.5"/>
<feColorMatrix type="matrix" values="0 0 0 0 0 0 0 0 0 0 0 0 0 0 0 0 0 0 0.08 0"/>
<feBlend mode="normal" in2="BackgroundImageFix" result="effect1_dropShadow_1_7218"/>
<feBlend mode="normal" in="SourceGraphic" in2="effect1_dropShadow_1_7218" result="shape"/>
</filter>
</defs>
</svg>
